<?xml version="1.0" standalone="no"?>
<!DOCTYPE svg PUBLIC "-//W3C//DTD SVG 20010904//EN"
 "http://www.w3.org/TR/2001/REC-SVG-20010904/DTD/svg10.dtd">
<svg version="1.0" xmlns="http://www.w3.org/2000/svg"
 width="1100.000000pt" height="1100.000000pt" viewBox="0 0 1100.000000 1100.000000"
 preserveAspectRatio="xMidYMid meet">
<metadata>
Created by potrace 1.14, written by Peter Selinger 2001-2017
</metadata>
<g transform="translate(0.000000,1100.000000) scale(0.100000,-0.100000)"
fill="#000000" stroke="none">
<path d="M6504 9360 c-28 -3 -58 -10 -65 -17 -8 -6 -25 -11 -39 -11 -75 -1
-201 -13 -278 -27 -48 -9 -120 -20 -161 -25 -70 -9 -186 -40 -223 -61 -10 -5
-23 -9 -30 -9 -17 0 -138 -81 -138 -92 0 -6 -7 -7 -16 -4 -15 6 -75 -21 -82
-36 -2 -4 -29 -22 -60 -40 -31 -17 -94 -56 -139 -85 -45 -29 -89 -53 -97 -53
-8 0 -46 -19 -85 -42 -40 -24 -86 -51 -104 -60 -17 -10 -28 -18 -23 -18 5 0 3
-7 -4 -15 -7 -8 -19 -15 -28 -15 -12 0 -12 4 4 23 11 13 5 10 -13 -7 -18 -16
-55 -37 -84 -46 -60 -20 -142 -91 -133 -115 4 -8 1 -15 -6 -15 -6 0 -10 -6 -7
-12 2 -7 0 -21 -5 -30 -6 -13 -5 -18 5 -18 7 0 13 -9 13 -20 0 -11 -4 -20 -9
-20 -5 0 -7 -15 -4 -34 6 -37 -7 -57 -32 -49 -14 4 -14 3 -1 -7 11 -9 12 -13
3 -17 -7 -2 -22 -22 -34 -43 l-21 -38 -48 30 c-27 17 -54 28 -61 26 -7 -2 4
-12 24 -22 39 -18 45 -24 25 -23 -32 1 -48 -4 -48 -14 0 -7 11 -8 29 -4 48 10
44 -12 -4 -24 -24 -6 -51 -11 -60 -11 -22 0 -95 -51 -95 -67 0 -6 -12 -22 -27
-35 -45 -38 -105 -117 -98 -128 4 -6 1 -17 -5 -25 -7 -8 -9 -15 -6 -15 4 0 2
-9 -4 -21 -6 -11 -13 -41 -16 -66 -2 -26 -15 -65 -29 -88 -13 -23 -26 -54 -29
-69 -3 -14 -14 -39 -25 -55 -27 -38 -28 -60 -1 -36 11 10 17 22 14 26 -3 5 3
12 13 16 10 4 23 13 28 20 6 7 19 10 33 7 30 -8 28 -19 -4 -22 -35 -3 -60 -28
-44 -47 12 -15 -3 -57 -19 -52 -20 6 -69 -64 -76 -110 -4 -26 -13 -60 -21 -76
-8 -15 -16 -42 -18 -60 -2 -18 -7 -40 -11 -49 -4 -10 -3 -18 3 -18 15 0 21
-38 11 -73 -15 -50 -13 -138 2 -148 11 -8 11 -11 -3 -20 -10 -5 -18 -15 -18
-21 0 -6 -7 -19 -16 -29 -14 -15 -14 -17 3 -15 10 0 22 6 26 11 5 6 7 -4 5
-22 -3 -18 -1 -30 4 -27 4 3 8 1 8 -4 0 -11 -31 -39 -37 -34 -3 2 -7 1 -10 -1
-2 -3 6 -4 19 -3 17 2 24 -2 25 -15 1 -9 -4 -20 -12 -23 -7 -2 -16 -19 -20
-36 -8 -38 2 -103 16 -95 10 7 7 -29 -11 -135 -10 -62 -13 -176 -4 -168 3 4 7
17 9 30 11 81 29 135 59 182 35 55 82 96 111 96 27 0 56 -20 49 -33 -4 -7 3
-3 15 8 l22 19 -11 -28 c-9 -24 -8 -27 5 -22 9 3 14 2 10 -3 -3 -5 1 -15 8
-23 16 -16 31 -50 28 -63 -1 -5 3 -4 10 3 19 18 29 15 29 -8 0 -11 -4 -20 -10
-20 -5 0 -7 -6 -4 -13 11 -29 -36 -10 -58 23 -28 41 -83 80 -113 80 -26 0 -46
-22 -67 -75 -16 -40 -18 -51 -20 -112 -1 -18 -5 -30 -10 -27 -4 3 -8 0 -8 -5
0 -6 4 -11 9 -11 16 0 8 -39 -8 -45 -14 -5 -14 -7 -1 -15 11 -7 12 -10 2 -10
-7 0 -11 -4 -8 -9 3 -5 -1 -14 -9 -21 -8 -7 -15 -19 -15 -26 0 -8 -5 -14 -11
-14 -5 0 -7 -4 -4 -10 3 -5 1 -10 -5 -10 -6 0 -8 -5 -5 -10 4 -6 1 -17 -5 -25
-6 -8 -9 -19 -5 -25 3 -5 2 -10 -3 -10 -21 0 -34 -173 -16 -202 5 -7 9 -17 10
-23 0 -5 2 -16 2 -22 1 -7 9 -13 18 -13 11 0 14 5 9 18 -4 9 -12 47 -18 84 -9
56 -7 77 7 131 21 76 33 95 110 178 32 34 70 79 84 98 14 20 22 28 19 18 -4
-11 -3 -16 3 -12 6 3 10 18 10 32 0 21 2 23 14 13 12 -9 13 -18 5 -38 -6 -15
-10 -28 -10 -29 4 -13 -2 -13 -16 -2 -16 12 -17 12 -7 -1 7 -8 10 -27 8 -43
-2 -19 3 -30 16 -37 16 -9 18 -8 14 5 -5 11 -2 13 9 9 9 -3 32 -1 52 6 38 12
45 33 23 73 -6 12 -14 36 -19 54 -6 28 -4 33 12 33 12 0 19 -7 19 -20 0 -11 4
-20 10 -20 5 0 7 -6 4 -14 -3 -7 1 -16 9 -19 8 -3 14 -16 13 -29 -1 -13 3 -26
8 -30 12 -8 -33 -76 -56 -84 -10 -3 -18 -10 -18 -16 0 -5 -6 -8 -12 -6 -7 3
-24 -1 -37 -8 -14 -7 -29 -10 -34 -7 -5 3 -13 -1 -18 -8 -5 -9 -9 -10 -9 -2 0
10 -20 9 -60 -4 -8 -2 -17 -4 -20 -4 -3 -1 -11 -5 -18 -11 -7 -6 -15 -8 -19
-5 -6 7 -36 -29 -46 -55 -4 -12 -2 -15 8 -11 13 4 13 1 0 -23 -17 -34 -20 -74
-5 -74 6 0 10 -6 9 -12 -3 -15 10 -48 25 -65 6 -7 17 -19 24 -27 9 -12 18 -13
38 -6 14 6 30 8 35 5 5 -4 6 1 3 9 -4 12 0 16 16 16 14 0 19 -4 14 -12 -4 -7
-9 -23 -10 -36 -2 -18 1 -22 16 -17 10 3 22 1 25 -6 7 -10 -4 -22 -30 -33 -5
-2 -1 -11 10 -20 25 -19 39 -20 32 -2 -4 9 0 12 13 9 21 -6 36 -36 21 -41 -6
-2 -11 -9 -11 -15 0 -7 -16 -29 -35 -50 -33 -36 -47 -66 -25 -52 6 3 10 1 10
-5 0 -7 -9 -14 -19 -17 -12 -3 -23 -17 -27 -35 -4 -23 -8 -27 -15 -17 -7 11
-9 11 -9 1 0 -7 -4 -10 -10 -7 -6 3 -7 -1 -4 -10 5 -11 2 -14 -10 -9 -9 3 -16
1 -16 -5 0 -6 10 -11 23 -11 16 0 18 -3 8 -9 -7 -5 -11 -13 -8 -17 3 -5 -12
-8 -32 -8 l-37 2 10 -49 c10 -48 20 -61 29 -36 2 6 3 4 1 -7 -1 -10 1 -26 7
-35 5 -9 15 -29 21 -46 12 -27 13 -20 16 73 l3 102 29 0 c15 0 49 9 74 20 39
16 46 17 46 4 0 -8 -7 -17 -15 -20 -8 -4 -15 -12 -15 -20 0 -8 -4 -14 -10 -14
-5 0 -10 -7 -10 -16 0 -12 3 -14 13 -6 6 6 27 14 45 19 17 4 32 13 33 18 0 6
5 16 11 23 10 12 4 16 -17 12 -5 -1 -1 7 10 18 11 10 25 17 31 15 7 -2 18 5
26 16 8 12 18 18 21 14 4 -3 7 5 7 20 0 14 7 33 16 41 20 21 23 20 17 -2 -4
-18 4 -20 47 -13 3 1 11 11 19 22 11 19 11 21 -3 16 -20 -8 -20 -9 4 41 20 41
38 50 73 36 17 -6 11 -44 -7 -44 -7 0 -6 -4 2 -9 21 -13 19 -17 -11 -41 -22
-17 -27 -28 -23 -46 6 -24 -1 -29 -33 -25 -7 2 -10 -3 -6 -9 4 -6 0 -19 -7
-28 -27 -31 -30 -42 -12 -35 13 5 15 3 9 -8 -5 -8 -5 -11 1 -6 5 5 9 12 10 15
1 16 28 62 35 62 4 0 15 3 24 6 12 5 16 2 13 -12 -4 -27 -26 -47 -40 -38 -7 4
-10 4 -6 -1 11 -12 -11 -45 -36 -55 -13 -4 -35 -32 -51 -63 -16 -31 -33 -53
-37 -51 -5 3 -5 11 -1 17 4 7 8 18 9 26 2 7 11 23 22 35 15 15 20 34 19 68
l-2 47 -22 -27 c-17 -21 -18 -28 -7 -30 19 -5 18 -37 -2 -56 -22 -23 -27 -20
-20 10 5 17 3 23 -4 19 -5 -3 -10 -19 -10 -36 0 -16 -5 -29 -11 -29 -8 0 -8
-5 1 -15 10 -12 10 -15 0 -15 -9 0 -10 -4 -2 -13 8 -9 6 -16 -7 -24 -24 -15
-17 -67 8 -59 13 5 13 4 -1 -8 -10 -7 -18 -18 -18 -25 0 -16 40 5 40 22 0 7
16 20 36 30 34 17 35 17 32 0 -2 -11 -11 -17 -21 -15 -13 2 -17 -5 -17 -33 0
-27 -4 -35 -18 -35 -11 0 -27 -9 -36 -19 -17 -19 -17 -19 3 -14 12 3 24 9 27
14 6 11 24 12 23 2 -4 -22 3 -32 16 -27 10 4 13 13 10 25 -4 11 -3 19 2 19 18
0 11 -39 -11 -59 -28 -26 -96 -40 -76 -16 7 8 22 15 33 15 14 0 18 3 11 10 -7
7 -23 5 -51 -8 l-41 -18 22 -18 21 -18 -21 6 c-15 5 -24 2 -28 -9 -4 -11 2
-15 22 -16 56 -4 102 -16 102 -29 0 -4 -17 -12 -37 -19 -43 -13 -76 -38 -86
-63 -5 -13 -1 -18 13 -18 13 0 17 5 14 15 -8 19 4 35 21 29 11 -5 12 -10 2
-27 -18 -33 -29 -38 -67 -33 l-35 5 30 -14 c17 -8 36 -14 43 -15 6 0 12 -5 12
-10 0 -6 -11 -8 -25 -4 -28 7 -35 -10 -9 -20 15 -6 14 -9 -5 -25 -25 -22 -18
-31 26 -31 19 0 32 -4 29 -9 -3 -5 1 -14 8 -20 11 -9 16 -9 23 2 4 9 19 17 32
19 14 1 26 9 29 17 3 9 0 11 -7 7 -14 -9 -111 3 -111 13 0 5 23 6 50 3 33 -3
50 -1 50 6 0 6 -7 9 -15 6 -8 -4 -15 -2 -15 3 0 5 25 9 55 9 30 0 55 -4 55 -8
0 -4 -9 -8 -20 -8 -25 0 -26 -25 -2 -35 16 -6 15 -7 -3 -17 -11 -6 -24 -17
-28 -25 -4 -7 -13 -13 -18 -13 -6 0 -7 5 -4 10 9 15 -15 12 -31 -4 -8 -8 -12
-21 -9 -28 4 -10 -4 -14 -30 -14 -19 0 -35 4 -35 8 0 4 -9 8 -20 8 -20 0 -29
-19 -10 -21 11 -2 25 -5 38 -9 4 -1 10 -2 15 -1 15 2 6 -18 -10 -22 -17 -4
-17 -5 0 -6 30 -2 18 -18 -14 -19 -37 -1 -49 -10 -29 -22 8 -6 11 -10 5 -10
-5 0 -3 -6 5 -13 9 -7 17 -23 18 -37 4 -50 10 -65 22 -62 8 2 10 -3 7 -12 -4
-11 1 -18 17 -22 23 -5 23 -7 8 -23 -10 -10 -24 -18 -32 -18 -34 -1 -37 -4
-34 -33 2 -16 -1 -30 -6 -30 -6 0 -10 -4 -10 -10 0 -5 7 -7 15 -4 17 7 22 -31
5 -41 -16 -10 -11 -28 6 -21 10 4 13 2 7 -7 -12 -20 -12 -37 0 -37 7 -1 2 -9
-10 -19 -26 -22 -30 -49 -9 -57 10 -4 12 -12 7 -27 -4 -12 -5 -36 -1 -53 6
-25 5 -31 -6 -27 -15 5 -16 4 -18 -39 -1 -15 1 -25 5 -22 4 2 10 0 14 -6 4 -6
11 -7 17 -4 7 4 8 2 4 -5 -4 -6 -12 -9 -17 -6 -5 4 -9 -1 -9 -9 0 -9 6 -16 13
-16 9 0 9 -2 -1 -8 -7 -5 -10 -16 -6 -25 4 -12 1 -15 -14 -12 -12 2 -23 -3
-26 -12 -8 -21 1 -30 16 -15 7 7 17 12 22 12 6 0 0 -7 -12 -16 -18 -12 -26
-13 -37 -4 -8 7 -13 16 -10 20 3 5 0 12 -6 15 -7 5 -10 -2 -7 -21 2 -21 -3
-31 -20 -40 -12 -6 -26 -15 -30 -19 -4 -5 -2 -5 5 -1 7 4 18 -6 27 -26 19 -36
14 -47 -11 -27 -16 13 -17 12 -4 -4 17 -21 7 -35 -12 -18 -11 9 -17 8 -27 -4
-11 -13 -10 -14 4 -9 9 3 16 1 16 -5 0 -6 -4 -11 -9 -11 -5 0 -11 -6 -14 -13
-3 -8 1 -14 9 -14 7 0 11 4 9 8 -3 4 2 10 11 13 12 4 15 2 11 -9 -4 -8 -2 -17
3 -20 5 -3 10 9 12 27 2 17 10 34 18 36 12 4 13 3 2 -10 -10 -13 -10 -17 3
-22 8 -3 15 -11 15 -17 0 -8 -4 -9 -13 0 -10 8 -14 7 -14 -4 0 -8 7 -15 15
-15 8 0 12 -6 9 -14 -7 -17 26 -49 38 -39 4 5 5 2 1 -5 -5 -8 -1 -19 10 -27
11 -8 14 -15 8 -15 -6 0 -17 7 -24 15 -7 9 -19 14 -26 11 -7 -3 -16 -1 -19 4
-3 4 1 10 7 13 7 2 11 7 8 10 -3 3 -12 2 -19 -2 -18 -12 4 -52 24 -45 10 4 15
0 15 -15 0 -16 -3 -19 -12 -11 -7 5 -24 19 -38 29 -22 18 -24 22 -12 41 7 12
11 25 8 28 -3 3 -6 0 -6 -6 0 -18 -21 -14 -36 6 -10 12 -13 13 -14 3 0 -8 7
-19 16 -26 15 -11 15 -12 0 -12 -9 0 -16 4 -16 8 0 14 -41 21 -55 9 -11 -9
-12 -7 -8 9 3 12 1 21 -6 21 -6 0 -11 -5 -11 -11 0 -6 -8 -8 -17 -5 -14 4 -18
0 -19 -19 -1 -14 3 -25 9 -25 6 0 8 -2 5 -5 -8 -9 -38 6 -32 16 3 5 0 9 -6 9
-7 0 -10 6 -7 13 2 6 -2 19 -11 27 -14 12 -15 12 -10 -6 3 -11 -3 -27 -15 -39
-14 -14 -18 -15 -15 -5 6 17 -18 57 -30 52 -3 -2 -8 2 -11 9 -2 7 1 9 9 4 9
-5 11 -4 6 3 -5 9 -13 9 -26 2 -14 -8 -21 -6 -28 6 -6 11 -11 13 -16 5 -10
-16 -36 -14 -30 3 3 8 0 17 -7 22 -7 4 -10 3 -6 -3 7 -11 -29 -63 -43 -63 -5
0 -11 8 -13 18 -4 16 -5 16 -6 0 0 -10 -9 -18 -18 -18 -15 0 -16 2 -3 10 8 5
11 12 8 16 -4 3 3 15 15 25 22 19 22 19 -11 3 -18 -9 -30 -20 -27 -25 4 -5 2
-9 -4 -9 -5 0 -13 4 -16 10 -10 16 -35 12 -29 -5 4 -8 1 -22 -6 -30 -9 -11
-10 -18 -1 -29 9 -10 8 -15 -3 -19 -10 -4 -13 -1 -10 7 3 7 -2 21 -11 30 -10
10 -12 16 -5 16 7 0 10 7 6 15 -3 8 -2 15 3 15 7 0 71 83 71 93 0 2 -19 8 -42
11 -24 4 -106 25 -183 47 -77 22 -149 38 -161 35 -26 -7 -84 -69 -250 -269
-68 -81 -150 -170 -183 -197 l-60 -50 -66 9 c-67 10 -145 2 -215 -20 -19 -6
-73 -15 -120 -19 -83 -7 -260 -35 -410 -65 -41 -9 -118 -23 -170 -32 -52 -8
-144 -30 -205 -48 -60 -19 -137 -41 -170 -50 -33 -9 -123 -36 -200 -60 -77
-23 -167 -50 -200 -60 -133 -37 -318 -101 -460 -158 -82 -33 -193 -76 -245
-97 -52 -20 -120 -49 -150 -63 -30 -15 -107 -49 -170 -75 l-115 -49 -3 -1341
-2 -1342 5024 0 5024 0 -8 27 c-92 293 -125 368 -250 553 -31 47 -83 132 -115
190 -104 186 -145 241 -285 381 -172 173 -388 340 -591 458 -46 27 -124 73
-174 103 -49 30 -130 76 -180 102 -188 101 -299 171 -354 221 -67 61 -128 98
-318 193 -78 39 -177 93 -220 121 -43 27 -112 64 -153 81 -72 31 -118 60 -168
105 -28 26 -235 135 -256 135 -26 0 -61 49 -116 158 -29 57 -53 102 -55 100
-1 -2 -21 -48 -45 -103 -67 -157 -158 -276 -250 -326 -14 -7 -28 -12 -32 -11
-5 1 -8 -2 -8 -6 0 -15 -58 -42 -76 -35 -10 4 -15 2 -11 -3 3 -6 -16 -17 -44
-25 -44 -14 -49 -14 -49 0 0 10 -3 12 -8 5 -11 -17 -41 -24 -48 -12 -4 7 -3 8
4 4 7 -4 12 -2 12 3 0 14 -6 14 -31 1 -25 -14 -27 14 -1 29 11 7 12 10 3 11
-8 0 -11 6 -7 15 4 13 2 14 -14 5 -11 -6 -20 -13 -20 -16 0 -3 4 -3 9 1 5 3
12 1 16 -5 3 -5 3 -10 -2 -11 -4 0 -16 -2 -25 -4 -25 -5 -30 23 -7 35 11 6 17
15 13 21 -4 6 -12 5 -22 -3 -13 -11 -15 -10 -9 5 5 15 2 18 -15 15 -19 -3 -22
1 -21 36 0 21 7 42 14 47 19 12 6 11 -25 -1 -14 -5 -26 -16 -26 -24 0 -8 -6
-16 -12 -19 -18 -5 -48 3 -48 15 0 5 10 4 21 -3 20 -10 21 -9 17 15 -4 20 -2
26 8 22 18 -7 25 6 13 24 -6 10 -9 11 -9 3 0 -7 -7 -13 -16 -13 -14 0 -14 2
-3 16 11 14 10 16 -13 13 -14 -2 -33 3 -44 11 -10 9 -15 10 -10 3 4 -7 2 -13
-4 -13 -5 0 -18 13 -29 30 -10 16 -21 27 -25 22 -4 -4 -6 -1 -4 7 2 8 -6 14
-19 16 -30 2 -38 11 -18 18 8 4 15 3 15 -1 0 -4 10 -8 23 -9 18 -1 17 1 -8 12
-16 7 -38 16 -49 19 -12 4 -17 13 -13 26 3 13 0 20 -9 20 -8 0 -14 -4 -14 -10
0 -5 -7 -10 -15 -10 -23 0 -17 14 12 27 31 15 44 4 35 -31 -3 -12 -1 -17 4
-13 9 9 10 13 13 41 1 10 14 13 51 10 31 -2 48 0 45 6 -4 6 3 7 17 2 28 -10
58 -5 58 11 0 8 4 7 12 -1 7 -7 15 -12 19 -12 11 0 7 44 -6 52 -6 5 -6 8 2 8
7 0 10 7 7 15 -5 11 -2 13 10 9 9 -3 14 -9 12 -13 -3 -4 4 -7 15 -7 28 0 23
13 -7 20 -19 5 -24 10 -16 18 6 6 8 17 5 26 -4 10 -2 13 6 8 18 -12 44 13 30
30 -6 7 -8 18 -4 24 3 5 1 10 -4 10 -15 0 -14 40 2 40 7 0 5 5 -5 11 -9 5 -15
15 -12 23 3 7 -2 19 -11 26 -22 18 -19 25 12 28 14 1 34 9 44 18 10 9 22 13
28 10 5 -3 11 0 14 6 3 10 7 10 19 0 11 -9 18 -9 23 -3 3 6 20 9 38 7 18 -1
46 3 64 10 17 7 64 14 105 16 40 1 76 7 79 12 4 5 20 8 35 8 16 0 38 5 49 11
11 6 28 11 37 12 10 1 26 9 37 19 15 13 20 14 25 4 3 -7 4 -2 3 11 -2 20 4 26
32 33 18 5 42 18 54 29 11 10 27 19 34 19 8 0 11 5 8 10 -3 6 5 10 19 10 28 0
43 15 24 24 -7 4 -3 4 9 2 16 -3 20 0 16 12 -5 11 -2 14 10 9 10 -4 17 -1 17
6 0 8 4 6 10 -3 9 -13 14 -7 11 12 0 5 8 8 19 8 11 0 20 5 20 11 0 5 -6 7 -12
3 -10 -6 -10 -5 -1 8 7 8 10 17 8 20 -3 3 14 8 39 10 25 3 52 13 61 22 9 9 20
16 25 16 5 0 12 9 15 20 3 11 15 20 25 20 10 0 22 5 25 10 4 6 10 8 14 6 4 -3
20 6 35 20 15 15 34 23 42 20 8 -3 13 -2 10 3 -3 5 1 12 10 15 8 3 12 10 9 16
-3 5 3 10 14 10 11 0 23 5 26 10 3 5 13 10 20 10 8 0 23 7 32 15 10 8 27 22
38 31 11 8 14 12 7 9 -11 -6 -11 -3 -1 14 9 14 16 17 21 8 4 -7 13 3 24 28 15
35 18 38 25 20 8 -22 9 -22 14 19 5 37 15 46 16 15 l0 -24 12 23 c8 18 8 25
-3 32 -11 7 -11 14 3 42 l17 33 1 -35 c1 -21 3 -27 6 -15 3 11 9 24 14 29 5 5
1 15 -9 23 -15 11 -15 13 8 10 22 -2 25 2 28 35 3 31 0 37 -16 35 -14 -1 -18
-7 -14 -20 4 -14 0 -18 -14 -15 -10 2 -20 12 -20 23 -3 38 -5 40 -17 18 -7
-13 -12 -40 -12 -62 0 -27 -3 -37 -12 -34 -17 7 -16 -3 2 -30 13 -21 13 -23
-6 -24 -14 -1 -19 3 -15 13 3 8 1 14 -4 14 -14 0 -12 26 3 42 6 7 13 20 15 27
2 11 -3 10 -22 -3 -14 -9 -32 -16 -40 -16 -9 0 -13 -6 -10 -14 3 -8 1 -17 -5
-21 -7 -4 -11 6 -11 28 0 63 -11 97 -31 97 -11 0 -19 4 -19 10 0 5 7 7 15 4
12 -5 10 5 -9 41 -18 37 -21 51 -12 61 8 9 12 6 16 -14 3 -14 10 -27 17 -29 9
-3 10 4 4 24 -9 30 -35 89 -50 113 -5 8 -12 24 -16 34 -7 23 -17 15 -20 -16
-4 -35 -4 -35 -25 -41 -11 -3 -20 -1 -20 5 0 5 -4 7 -9 4 -5 -4 -7 2 -5 11 3
10 -2 27 -10 38 -15 19 -15 19 -16 -10 -1 -16 -4 -24 -7 -17 -2 6 -9 12 -14
12 -6 0 -7 -5 -4 -10 11 -18 -6 -32 -23 -18 -13 11 -14 11 -8 0 4 -7 9 -31 11
-53 3 -33 1 -38 -11 -28 -11 9 -14 8 -14 -5 0 -9 -4 -16 -10 -16 -5 0 -10 -11
-10 -25 l0 -25 -26 23 c-37 32 -56 72 -48 104 l7 28 -27 -28 c-22 -24 -29 -27
-42 -16 -13 11 -14 9 -3 -14 11 -24 10 -29 -7 -42 -23 -17 -34 -19 -34 -4 0 5
4 8 9 4 5 -3 12 -1 16 5 8 13 -30 54 -43 46 -6 -3 -13 1 -16 10 -8 21 -27 8
-20 -14 5 -13 4 -14 -4 -3 -5 7 -15 10 -21 7 -6 -4 -11 -3 -11 3 0 5 5 11 11
13 16 5 18 98 3 98 -7 0 -23 13 -37 29 -18 22 -35 31 -63 33 -34 3 -39 6 -42
31 -2 15 -8 27 -14 27 -5 0 -8 -7 -4 -15 3 -9 0 -15 -9 -15 -17 0 -21 51 -6
79 8 14 6 17 -11 17 -12 -1 -23 6 -25 14 -4 13 -3 13 6 0 5 -8 13 -11 17 -7 4
4 -1 17 -12 29 -17 19 -17 21 -1 15 11 -4 17 -1 17 9 0 8 4 13 9 9 5 -3 12 -1
16 5 9 14 52 12 58 -2 3 -8 6 -6 6 5 1 13 7 16 24 12 12 -3 31 -6 42 -8 11 -1
25 -6 30 -9 6 -4 17 -3 25 2 8 5 27 1 49 -11 19 -10 38 -15 41 -10 3 4 13 7
22 5 10 -1 20 2 24 7 3 5 0 9 -7 9 -10 0 -10 3 -1 12 9 9 17 7 33 -8 13 -10
20 -14 16 -8 -3 6 1 23 9 39 8 16 13 33 11 39 -3 6 7 24 22 40 14 16 21 26 14
22 -7 -4 -11 1 -10 13 0 11 4 18 8 15 4 -2 7 16 6 41 -1 28 3 47 11 50 6 2 12
11 12 20 0 9 -6 15 -12 14 -33 -4 -39 1 -28 21 8 14 8 20 0 20 -21 0 -60 48
-55 67 3 10 1 8 -6 -4 -7 -13 -16 -23 -21 -23 -5 0 -6 5 -2 11 3 6 0 15 -7 20
-10 6 -10 9 -2 9 8 0 10 7 6 18 -6 15 -5 16 12 2 19 -15 19 -14 2 13 -10 15
-13 27 -7 27 18 0 25 -5 22 -15 -1 -5 4 -2 12 8 11 15 18 16 35 8 11 -6 29
-11 41 -11 61 0 110 -58 115 -138 3 -45 9 -57 28 -57 7 0 11 -11 10 -23 -2
-13 3 -22 11 -22 8 0 13 -10 12 -22 0 -13 4 -22 11 -21 7 2 10 -3 7 -11 -3 -7
2 -21 12 -30 11 -12 15 -27 11 -50 -5 -30 -3 -33 14 -29 15 4 19 0 19 -21 0
-15 7 -29 15 -32 8 -4 15 -14 16 -23 0 -10 2 -12 6 -3 3 7 -1 20 -8 30 -11 13
-9 13 9 -2 12 -11 22 -14 22 -8 0 22 21 12 32 -15 l11 -28 9 38 c6 20 14 37
19 37 6 0 5 9 -1 20 -6 12 -7 20 -1 20 5 0 12 -6 15 -12 3 -7 4 -1 1 14 -3 15
-1 29 4 32 4 3 6 17 3 31 -4 23 4 30 31 26 4 0 7 6 7 15 0 13 -3 14 -14 5 -10
-8 -16 -9 -21 -1 -3 5 6 15 21 20 15 6 24 13 21 16 -3 4 1 13 9 21 8 8 11 19
8 25 -4 6 -10 5 -15 -3 -6 -10 -9 -7 -9 11 -3 95 -21 170 -42 170 -4 0 -5 7
-2 15 9 22 24 18 24 -5 0 -13 5 -18 15 -14 20 8 19 34 -2 34 -9 0 -13 3 -10 7
8 8 -22 43 -36 43 -6 0 -2 -9 8 -20 10 -11 13 -20 7 -20 -7 0 -12 4 -12 10 0
5 -6 9 -12 7 -9 -1 -12 8 -10 26 1 15 -2 27 -8 27 -5 0 -10 6 -10 13 0 16 -32
44 -57 49 -11 2 -18 11 -17 25 1 12 -8 31 -20 42 -22 20 -22 20 -23 1 -1 -11
4 -20 13 -20 8 0 14 -4 14 -10 0 -5 -7 -10 -16 -10 -8 0 -13 -4 -10 -9 4 -5 1
-11 -6 -13 -7 -3 -9 -11 -3 -24 8 -19 8 -19 13 1 7 32 22 42 23 15 2 -38 -2
-65 -11 -70 -4 -3 -7 -22 -6 -43 3 -44 -15 -65 -35 -41 -11 13 -10 17 2 25 8
5 9 9 3 9 -12 0 -44 75 -44 103 0 9 -5 17 -11 17 -6 0 -9 9 -6 20 3 11 1 18
-3 15 -5 -3 -10 -2 -13 2 -2 5 -2 2 0 -6 3 -11 1 -11 -12 -1 -8 7 -21 10 -28
7 -8 -3 -14 4 -15 21 -3 33 -12 42 -12 11 0 -19 -2 -21 -10 -9 -9 13 -11 13
-21 0 -9 -13 -10 -12 -5 2 3 12 -5 24 -24 38 -17 12 -30 29 -31 38 0 11 -2 13
-6 4 -4 -10 -8 -10 -19 -1 -8 6 -11 16 -7 23 5 7 2 7 -8 -1 -10 -8 -20 -9 -29
-2 -13 8 -13 10 0 20 13 9 13 10 0 6 -8 -2 -40 14 -71 35 -31 21 -62 38 -69
38 -6 0 -28 17 -48 38 -20 20 -40 36 -44 35 -13 -5 -9 14 6 26 17 15 66 4 66
-15 0 -35 117 -112 148 -98 9 4 19 8 22 9 31 11 51 24 82 54 36 35 36 36 18
56 -21 23 -38 125 -21 125 6 0 11 -9 11 -20 0 -11 7 -20 15 -20 8 0 15 5 15
10 0 6 -4 10 -10 10 -5 0 -10 7 -10 15 0 8 -5 15 -10 15 -11 0 -60 48 -60 59
0 3 15 22 33 42 18 20 31 41 30 46 -2 6 1 14 6 18 7 4 5 15 -5 31 -15 22 -15
24 0 24 10 0 15 4 12 8 -3 5 -6 25 -8 46 -1 27 -6 35 -16 31 -11 -4 -11 0 2
20 15 23 15 25 1 25 -12 0 -15 6 -10 19 4 13 1 18 -9 17 -8 0 -15 2 -15 7 -1
14 -24 33 -42 33 -10 0 -15 -4 -13 -8 3 -4 -7 -10 -21 -14 -14 -3 -25 -11 -25
-17 0 -5 -9 -2 -19 7 -19 17 -18 52 1 40 5 -3 7 -12 4 -20 -6 -16 10 -19 19
-4 4 6 11 8 16 5 5 -4 9 -2 9 3 0 5 -9 12 -21 15 -12 3 -18 10 -14 16 4 8 -1
8 -18 0 -21 -9 -28 -8 -47 11 -21 21 -22 21 -35 3 -7 -10 -11 -20 -8 -23 3 -3
8 1 10 8 6 17 33 15 33 -3 0 -9 -6 -12 -15 -9 -9 4 -15 1 -15 -7 0 -10 -3 -10
-12 -1 -16 16 -48 15 -48 0 0 -9 -4 -8 -10 2 -5 8 -10 11 -10 6 0 -5 -7 -3
-16 4 -8 8 -14 9 -13 4 6 -34 -3 -50 -28 -52 -25 -1 -26 0 -10 12 9 7 17 21
17 32 0 13 -3 15 -11 7 -6 -6 -18 -9 -25 -6 -8 3 -14 0 -14 -6 0 -6 5 -11 11
-11 8 0 7 -5 -2 -16 -12 -14 -14 -14 -20 3 -5 16 -7 16 -13 -4 -9 -27 -19 -29
-36 -8 -7 8 -18 15 -24 14 -7 0 -6 -2 2 -6 21 -8 13 -25 -9 -18 -15 5 -19 4
-15 -4 5 -7 -2 -11 -17 -11 -30 0 -40 -10 -27 -25 8 -9 4 -11 -15 -7 -14 2
-22 8 -19 13 3 5 0 9 -5 9 -6 0 -11 -4 -11 -9 0 -5 -9 -13 -20 -16 -11 -4 -18
-11 -15 -16 4 -5 -1 -9 -9 -9 -26 0 -13 53 22 97 26 31 33 35 42 23 7 -12 10
-12 10 -1 0 22 51 56 80 53 14 -2 39 2 55 9 17 7 36 11 43 10 7 -1 15 5 18 14
3 8 14 15 24 15 11 0 21 4 25 10 3 5 13 6 23 3 14 -5 15 -3 5 8 -16 16 -18 38
-3 23 16 -16 70 -5 70 15 0 14 2 14 11 1 8 -12 9 -11 4 6 -4 15 0 24 10 28 9
3 13 2 10 -4 -8 -13 18 -13 31 0 8 8 20 7 40 -1 43 -16 74 -21 74 -10 0 5 8
12 18 15 9 2 1 2 -19 -1 -21 -3 -40 0 -43 6 -4 6 -1 9 7 6 7 -3 26 1 41 9 17
9 23 16 14 19 -10 3 -10 7 -1 17 8 9 9 19 2 31 -7 15 -6 17 6 13 17 -7 20 7 4
23 -8 8 -6 19 4 40 11 20 12 34 6 46 -8 14 -6 17 12 17 22 0 22 0 3 15 -18 14
-17 16 8 19 21 2 21 26 -1 26 -25 0 -37 18 -22 33 8 8 11 8 11 -2 0 -28 16 0
18 32 2 23 -2 37 -13 41 -8 3 -15 11 -14 18 0 10 2 10 6 1 2 -7 11 -13 19 -13
10 0 12 5 8 13 -5 6 11 -6 35 -28 48 -46 104 -139 121 -205 15 -60 52 -161 84
-233 14 -32 26 -63 26 -70 0 -7 13 -40 29 -73 34 -71 74 -104 204 -164 240
-111 497 -141 632 -75 106 52 215 213 291 430 27 78 47 119 69 139 16 16 22
24 12 16 -15 -11 -17 -11 -11 4 4 9 20 20 36 23 41 8 49 31 51 141 l2 97 -92
45 c-51 25 -93 50 -93 55 1 6 22 25 47 44 26 19 42 36 35 39 -7 2 -12 8 -12
14 0 5 9 7 20 3 15 -5 25 3 47 37 15 24 35 48 43 55 8 6 12 14 8 18 -4 4 -3
18 2 31 5 13 10 72 11 131 1 66 7 119 16 135 7 15 12 56 12 95 -1 52 -3 61 -9
38 -6 -22 -8 -24 -9 -9 0 12 -4 37 -7 55 -4 23 -3 30 4 21 7 -11 11 -8 14 12
3 15 1 29 -3 32 -14 8 -10 21 8 28 25 10 31 -9 28 -98 -1 -44 0 -67 2 -51 3
17 9 36 15 42 6 7 12 30 15 50 3 21 9 46 15 56 6 12 4 24 -7 39 -26 38 -17 57
10 23 28 -34 32 -30 11 10 -8 15 -12 33 -10 40 3 6 -3 18 -12 26 -16 13 -16
12 -5 -8 10 -19 9 -23 -3 -23 -8 0 -18 9 -21 20 -3 11 -15 25 -26 30 -10 6
-38 34 -60 63 -23 29 -47 52 -53 52 -6 0 -12 10 -12 23 -1 12 2 22 5 22 11 0
67 -63 90 -101 11 -18 21 -27 21 -19 1 10 10 4 25 -15 23 -27 24 -28 22 -6 -2
29 -199 230 -219 223 -11 -3 -10 16 2 23 13 8 70 -18 99 -46 l24 -23 -5 27
c-4 23 -3 25 9 15 8 -6 12 -20 10 -30 -4 -13 0 -18 15 -18 10 0 16 5 13 10 -8
13 1 13 27 -1 15 -8 19 -8 14 0 -4 6 -3 11 3 11 18 0 21 -18 6 -33 -13 -13 -9
-16 31 -22 25 -3 47 -12 50 -19 7 -17 64 -59 64 -47 0 5 -6 16 -13 23 -8 7
-16 18 -18 25 -7 18 -91 81 -132 99 -24 10 -36 22 -33 30 3 7 1 16 -4 19 -4 3
-10 0 -12 -7 -3 -8 -9 -8 -24 0 -19 11 -19 11 1 12 l20 1 -20 11 c-11 7 -30
13 -43 14 -12 2 -38 12 -56 24 -27 16 -37 31 -46 70 -7 28 -17 53 -23 57 -7 4
-8 0 -3 -13 5 -14 4 -16 -4 -7 -9 8 -9 16 -1 30 6 10 11 13 11 5 0 -7 5 -10
10 -7 6 3 10 1 10 -6 0 -7 3 -9 7 -6 3 4 18 -3 31 -15 14 -13 4 4 -21 37 -26
33 -47 64 -47 69 0 4 -13 25 -28 45 -39 49 -46 71 -24 71 14 0 14 3 -5 18 -24
19 -87 115 -97 150 -4 13 -52 67 -105 120 -54 53 -108 112 -120 130 -16 23
-28 31 -40 27 -13 -5 -14 -4 -3 7 10 10 18 9 40 -5 15 -9 26 -22 24 -29 -2 -7
0 -10 3 -6 4 4 15 -2 25 -14 10 -12 19 -17 23 -11 6 10 -94 104 -143 134 -33
20 -122 46 -185 54 -59 7 -95 24 -55 26 14 0 -4 8 -40 18 -36 9 -84 28 -108
42 l-43 26 36 28 c20 15 34 29 31 32 -2 3 -23 -10 -45 -27 -39 -31 -43 -33
-102 -27 -71 8 -79 12 -79 38 0 16 -7 19 -47 19 -52 1 -181 41 -193 60 -6 9
-9 9 -13 -1 -4 -11 -7 -12 -18 -1 -7 6 -25 12 -39 12 -15 0 -30 3 -33 6 -4 4
-21 8 -39 10 -18 2 -76 8 -128 14 -52 6 -126 14 -165 16 -38 3 -110 9 -160 14
-74 7 -92 6 -101 -6 -11 -14 -34 -19 -34 -8 0 4 8 13 18 20 19 15 22 15 -84 4z
m23 -16 c-3 -3 -12 -4 -19 -1 -8 3 -5 6 6 6 11 1 17 -2 13 -5z m-410 -70 c-3
-3 -12 -4 -19 -1 -8 3 -5 6 6 6 11 1 17 -2 13 -5z m2036 -308 c18 -14 22 -26
10 -26 -5 0 -19 9 -33 20 -16 13 -20 20 -10 19 8 0 23 -6 33 -13z m-2733 -85
c0 -6 -4 -13 -10 -16 -5 -3 -10 1 -10 9 0 9 5 16 10 16 6 0 10 -4 10 -9z
m2480 5 c0 -2 -8 -10 -17 -17 -16 -13 -17 -12 -4 4 13 16 21 21 21 13z m-2550
-97 c0 -6 -4 -7 -10 -4 -5 3 -10 11 -10 16 0 6 5 7 10 4 6 -3 10 -11 10 -16z
m-451 -125 c-15 -18 -22 -13 -13 10 3 9 10 13 16 10 5 -3 4 -12 -3 -20z m-126
-9 c-3 -9 -8 -14 -10 -11 -3 3 -2 9 2 15 9 16 15 13 8 -4z m64 -48 c-14 -31
-24 -34 -29 -9 -2 9 5 22 17 28 26 14 27 13 12 -19z m3362 -1 c26 -14 60 -46
48 -46 -6 0 -76 46 -86 56 -9 9 11 3 38 -10z m-3336 -36 c-6 -31 -7 -32 -14
-11 -6 14 -4 27 4 36 16 18 18 14 10 -25z m-100 -23 c-7 -38 -21 -16 -15 25 3
21 7 26 12 17 5 -8 6 -27 3 -42z m44 -29 c-3 -8 -6 -5 -6 6 -1 11 2 17 5 13 3
-3 4 -12 1 -19z m3567 -73 c11 -8 17 -17 14 -20 -8 -8 -58 13 -58 25 0 14 22
12 44 -5z m126 -35 c0 -5 -11 -12 -24 -16 -33 -8 -39 -28 -17 -53 12 -14 25
-19 37 -15 17 6 17 5 -1 -9 -22 -18 -50 -23 -40 -8 3 6 -1 14 -10 18 -8 5 -16
20 -18 33 -3 18 -10 24 -24 22 -11 -2 -23 4 -26 12 -5 12 2 14 44 9 33 -4 49
-2 49 6 0 6 7 11 15 11 8 0 15 -4 15 -10z m-3811 -76 c-13 -26 -49 -33 -49
-11 0 19 35 49 45 40 4 -5 5 -2 1 5 -4 6 -4 18 1 25 14 21 16 -34 2 -59z
m-249 -114 c-23 -18 -50 -26 -50 -16 0 8 65 45 70 40 2 -3 -6 -14 -20 -24z m5
-50 c-3 -5 -11 -10 -16 -10 -6 0 -7 5 -4 10 3 6 11 10 16 10 6 0 7 -4 4 -10z
m4221 -68 c-10 -2 -26 3 -35 12 -15 15 -13 16 19 4 26 -9 30 -13 16 -16z m38
-32 c14 -5 26 -14 26 -19 0 -5 -13 -3 -30 5 -44 23 -41 32 4 14z m-4 -200 c0
-5 -2 -10 -4 -10 -3 0 -8 5 -11 10 -3 6 -1 10 4 10 6 0 11 -4 11 -10z m-44
-52 c8 -16 13 -32 11 -34 -7 -7 -47 47 -47 63 0 21 18 6 36 -29z m77 -2 c15
-12 15 -14 2 -19 -9 -4 -19 2 -25 13 -12 23 -3 25 23 6z m22 -46 c-4 -6 3 -9
16 -7 21 2 23 -2 24 -55 1 -64 -18 -81 -29 -26 -5 24 -2 36 9 44 9 7 12 15 6
18 -5 3 -12 0 -15 -6 -3 -9 -9 -7 -20 6 -20 25 -20 36 0 36 8 0 12 -4 9 -10z
m75 -21 c0 -6 -4 -7 -10 -4 -5 3 -10 11 -10 16 0 6 5 7 10 4 6 -3 10 -11 10
-16z m0 -34 c10 -12 10 -15 -4 -15 -9 0 -16 7 -16 15 0 8 2 15 4 15 2 0 9 -7
16 -15z m20 -68 c0 -26 -15 -12 -25 23 -7 22 -6 23 9 11 9 -7 16 -23 16 -34z
m-716 -21 c30 -52 32 -66 10 -66 -11 0 -15 6 -11 20 3 11 1 18 -4 14 -9 -5
-17 11 -34 65 -11 35 9 18 39 -33z m546 33 c0 -5 -4 -9 -10 -9 -5 0 -10 7 -10
16 0 8 5 12 10 9 6 -3 10 -10 10 -16z m36 -44 c-3 -8 2 -16 10 -19 9 -3 13
-19 12 -43 0 -21 2 -48 6 -60 8 -25 0 -63 -13 -63 -10 0 -45 139 -37 147 3 3
8 -2 12 -11 3 -9 10 -16 15 -16 5 0 0 18 -11 40 -24 47 -24 51 -4 43 8 -3 13
-11 10 -18z m-624 -35 c-3 -23 0 -30 12 -30 9 0 16 -5 16 -11 0 -6 -7 -9 -15
-6 -11 5 -12 1 -5 -18 5 -14 6 -25 2 -25 -11 1 -46 34 -59 58 -11 18 -11 20 4
15 12 -5 14 -3 8 7 -5 8 -1 18 10 27 27 19 32 16 27 -17z m15 -12 c-3 -8 -6
-5 -6 6 -1 11 2 17 5 13 3 -3 4 -12 1 -19z m-2671 -77 c-17 -89 -55 -178 -56
-130 0 14 4 29 9 35 6 5 14 27 20 49 6 22 16 61 22 87 19 74 22 49 5 -41z
m-19 32 c-13 -74 -69 -159 -131 -198 -23 -15 -31 -18 -19 -7 12 11 19 23 15
27 -4 5 -2 5 4 2 7 -4 18 1 25 10 10 12 10 14 2 9 -21 -12 -15 9 8 30 12 10
28 32 36 48 14 26 14 28 -2 23 -9 -4 -14 -3 -10 3 3 6 1 10 -4 10 -25 0 -7 27
32 47 23 12 43 22 45 22 2 1 1 -11 -1 -26z m191 -21 c3 -16 -2 -22 -16 -22
-21 0 -36 25 -26 41 10 17 39 5 42 -19z m2497 -44 l50 -52 -45 31 c-56 39 -89
73 -69 73 8 0 37 -24 64 -52z m-2781 16 c4 -10 1 -14 -6 -11 -7 2 -26 -5 -43
-17 -16 -11 -33 -21 -37 -21 -5 0 -9 -4 -10 -10 -1 -5 -19 -17 -39 -26 -20
-10 -40 -23 -45 -30 -4 -7 9 -3 30 9 48 28 56 28 57 -5 l2 -28 4 29 c5 32 30
76 43 76 14 0 2 -55 -19 -92 -12 -19 -31 -39 -43 -45 -78 -37 -116 -53 -131
-53 -9 0 -17 -6 -17 -13 0 -6 -21 -23 -47 -37 -27 -13 -50 -27 -53 -31 -11
-14 -118 -59 -140 -59 -19 0 -20 2 -10 15 10 12 9 15 -5 15 -10 0 -15 6 -13
17 3 16 16 26 98 73 19 11 87 53 150 94 63 41 143 91 177 111 34 19 65 40 68
45 9 15 22 12 29 -6z m2826 12 c0 -3 -4 -8 -10 -11 -5 -3 -10 -1 -10 4 0 6 5
11 10 11 6 0 10 -2 10 -4z m-76 -63 c50 -63 54 -73 30 -73 -10 0 -5 -8 15 -26
26 -22 33 -24 53 -13 21 11 22 11 10 -4 -8 -9 -11 -21 -7 -27 4 -6 1 -17 -5
-25 -8 -10 -9 -15 -2 -15 7 0 10 -33 10 -92 -1 -51 2 -103 6 -115 10 -30 -6
-29 -41 2 -22 20 -24 24 -8 19 13 -4 5 8 -22 36 -24 23 -43 48 -43 55 0 7 -7
21 -16 29 -8 9 -13 20 -9 26 3 6 -1 7 -9 4 -21 -8 -33 26 -30 80 8 118 8 138
2 143 -5 2 -8 11 -8 19 0 9 5 12 12 8 8 -5 9 -2 5 9 -13 34 12 16 57 -40z
m-3949 10 c-28 -20 -41 -16 -20 7 10 11 22 17 28 13 6 -4 3 -12 -8 -20z m4438
7 c3 -11 1 -18 -4 -14 -5 3 -9 12 -9 20 0 20 7 17 13 -6z m-3223 0 c0 -5 -2
-10 -4 -10 -3 0 -8 5 -11 10 -3 6 -1 10 4 10 6 0 11 -4 11 -10z m2541 -17 c13
-16 12 -17 -3 -4 -10 7 -18 15 -18 17 0 8 8 3 21 -13z m-2291 -22 c0 -24 -25
-34 -40 -16 -15 18 -5 35 21 35 12 0 19 -7 19 -19z m2162 -23 c-4 -15 -2 -19
7 -13 7 4 11 17 9 29 -4 19 0 22 24 21 15 -1 41 -11 58 -23 16 -12 33 -22 37
-22 4 0 0 7 -11 15 -18 14 -18 14 1 12 11 0 20 -8 20 -17 -1 -23 25 -100 32
-95 4 2 7 -6 7 -17 0 -16 -6 -19 -27 -16 -19 3 -25 0 -22 -9 7 -17 -13 -17
-29 0 -6 8 -22 12 -35 9 -15 -3 -25 1 -29 12 -4 12 -13 15 -28 10 -20 -6 -19
-5 3 15 23 20 24 23 8 39 -10 9 -25 17 -34 17 -12 0 -16 9 -16 33 2 46 2 46
17 33 8 -7 12 -21 8 -33z m828 0 c-1 -28 -2 -30 -11 -15 -6 10 -8 25 -5 33 9
24 16 16 16 -18z m-4456 -12 c-3 -9 -12 -16 -19 -16 -7 0 -15 -7 -19 -15 -7
-18 -39 -20 -34 -2 3 6 15 17 27 23 13 7 28 17 34 23 14 14 19 8 11 -13z m919
-17 c-9 -9 -12 -7 -10 9 1 14 5 18 11 12 7 -7 6 -14 -1 -21z m3137 -9 c0 -15
-5 -12 -26 11 -19 22 -19 22 4 10 12 -6 22 -16 22 -21z m517 -71 c-12 -31 -29
-40 -23 -11 10 46 19 63 26 52 4 -7 3 -25 -3 -41z m-3472 21 c-3 -5 -27 -22
-53 -36 -26 -15 -75 -44 -109 -66 -34 -21 -67 -38 -73 -38 -5 0 -10 -4 -10
-10 0 -5 -6 -10 -14 -10 -7 0 -43 -20 -79 -44 -36 -24 -75 -47 -86 -51 -11 -3
-36 -17 -56 -31 -20 -13 -64 -39 -98 -56 -34 -18 -63 -36 -65 -40 -2 -4 -11
-8 -21 -8 -9 0 -21 -4 -26 -8 -6 -5 -26 -15 -45 -22 -19 -7 -51 -24 -70 -38
-33 -23 -33 -22 4 10 21 18 80 74 130 123 96 95 144 137 116 101 -13 -16 -12
-20 5 -32 27 -20 42 -17 112 19 181 94 222 116 263 142 25 16 70 42 100 58 30
16 59 34 65 38 12 12 18 11 10 -1z m275 -11 c0 -6 -4 -7 -10 -4 -5 3 -10 11
-10 16 0 6 5 7 10 4 6 -3 10 -11 10 -16z m2446 -64 c18 -13 18 -14 -4 -8 -12
3 -25 9 -28 14 -8 14 10 11 32 -6z m-46 -21 c0 -2 -16 -4 -36 -4 -19 0 -33 4
-30 8 5 8 66 4 66 -4z m40 -9 c10 -12 10 -15 -3 -15 -8 0 -17 7 -21 15 -3 8
-2 15 3 15 5 0 14 -7 21 -15z m747 -17 c-3 -8 -6 -5 -6 6 -1 11 2 17 5 13 3
-3 4 -12 1 -19z m43 -12 c5 -14 8 -35 6 -48 -3 -33 -33 -98 -45 -98 -6 0 -8
-7 -5 -15 4 -9 0 -15 -10 -15 -9 0 -16 7 -16 15 0 8 4 15 9 15 5 0 19 20 30
44 18 36 20 51 12 85 -10 45 3 57 19 17z m-80 -13 c-19 -64 -55 -113 -45 -62
4 19 43 89 50 89 2 0 0 -12 -5 -27z m44 -39 c3 -8 2 -12 -4 -9 -6 3 -10 10
-10 16 0 14 7 11 14 -7z m-44 -44 c0 -23 -50 -117 -74 -139 l-26 -24 0 26 c0
40 18 79 53 113 34 34 47 40 47 24z m-1743 -72 c-2 -13 -4 -5 -4 17 -1 22 1
32 4 23 2 -10 2 -28 0 -40z m713 18 c0 -7 -106 -36 -127 -35 -33 1 52 28 120
38 4 1 7 -1 7 -3z m-314 -28 c-8 -43 -28 -88 -38 -88 -5 0 -8 3 -6 8 2 4 11
28 22 55 20 51 29 61 22 25z m857 8 c15 -4 27 -11 27 -16 0 -14 -11 -13 -54 5
-37 16 -50 30 -18 22 9 -3 29 -8 45 -11z m-298 -6 c3 -5 1 -10 -4 -10 -6 0
-11 5 -11 10 0 6 2 10 4 10 3 0 8 -4 11 -10z m-2929 -19 c-2 -3 17 -5 42 -4
26 1 41 -1 35 -5 -22 -14 13 -45 41 -38 20 5 24 3 20 -9 -3 -8 -10 -13 -14
-10 -4 3 -13 -2 -19 -9 -9 -11 -9 -16 0 -22 8 -5 9 -3 4 6 -6 10 -4 12 8 7 10
-3 17 -2 17 4 0 11 41 2 50 -11 3 -4 12 -10 20 -13 12 -4 11 -6 -2 -6 -19 -1
-26 -21 -8 -21 6 0 10 -5 10 -11 0 -5 -4 -8 -9 -5 -5 4 -8 -1 -7 -9 3 -19 16
-32 16 -15 0 10 3 10 18 -1 28 -23 79 -49 96 -49 9 0 13 -6 10 -15 -4 -10 0
-13 15 -10 12 2 19 0 17 -4 -6 -10 27 -43 40 -40 23 4 45 -2 39 -11 -4 -6 1
-7 11 -3 13 5 16 2 12 -8 -7 -18 10 -43 35 -52 12 -4 17 -15 15 -29 -2 -13 2
-23 9 -23 6 0 15 -3 19 -7 4 -5 2 -8 -5 -8 -8 0 -7 -9 4 -30 9 -17 13 -35 10
-40 -3 -6 0 -10 9 -10 8 0 16 6 19 13 2 6 8 8 13 4 5 -4 2 -12 -5 -16 -7 -5
-11 -14 -7 -20 5 -7 1 -9 -8 -5 -11 4 -16 0 -16 -11 0 -10 4 -13 13 -9 8 6 8
3 -1 -9 -8 -9 -11 -21 -7 -26 3 -6 0 -8 -8 -5 -8 3 -14 13 -14 22 0 39 -4 52
-13 52 -7 0 -7 -7 -2 -17 10 -22 10 -54 -2 -72 -7 -10 -4 -12 13 -6 12 4 21 2
21 -4 0 -6 -8 -11 -17 -12 -12 0 -13 -2 -5 -6 7 -3 19 1 28 7 8 7 18 9 22 5 4
-4 2 -10 -5 -12 -7 -2 -9 -11 -6 -20 4 -10 2 -14 -4 -10 -5 3 -10 0 -10 -7 0
-28 27 -3 33 30 4 23 12 34 24 34 21 0 44 -25 36 -38 -8 -13 24 -38 32 -26 4
6 15 2 26 -9 18 -19 18 -20 -15 -13 -32 6 -35 4 -37 -21 -1 -16 -10 -34 -19
-40 -9 -7 -12 -13 -5 -13 6 0 17 9 24 19 10 14 18 17 28 10 13 -8 13 -10 0
-20 -12 -9 -12 -10 4 -5 13 5 17 2 12 -9 -3 -8 -2 -15 2 -15 5 0 8 -16 9 -35
1 -19 -3 -35 -8 -35 -5 0 -9 8 -9 18 -1 16 -1 16 -14 0 -7 -10 -16 -16 -20
-13 -3 3 -2 0 4 -7 6 -8 4 -16 -8 -24 -16 -12 -15 -13 4 -14 12 0 25 -10 32
-27 8 -19 10 -21 6 -5 -3 13 -1 22 7 22 7 0 5 8 -7 21 -19 22 -19 22 5 9 13
-6 21 -8 18 -3 -4 5 10 16 29 23 21 8 33 19 30 27 -3 7 -1 15 4 18 6 4 10 0
10 -8 0 -14 38 -16 59 -2 6 3 9 0 6 -7 -4 -10 3 -14 22 -13 15 1 35 -5 45 -13
12 -10 18 -11 24 -1 4 7 3 10 -3 6 -6 -4 -13 0 -17 8 -3 8 -15 15 -28 15 -16
0 -19 3 -11 11 9 9 18 6 38 -9 22 -18 31 -20 49 -10 17 8 15 4 -9 -23 -16 -19
-24 -29 -16 -22 7 6 19 10 25 9 6 -2 8 -1 3 1 -13 8 3 23 25 23 14 0 18 5 14
15 -3 8 -1 15 3 15 12 0 19 -22 16 -51 -1 -13 0 -16 2 -7 4 15 8 16 24 7 11
-6 24 -20 29 -32 7 -18 3 -27 -22 -48 -21 -18 -27 -28 -19 -33 7 -5 10 -2 9 6
-2 7 8 14 21 16 15 2 21 0 17 -7 -4 -6 0 -11 10 -11 14 0 14 3 4 15 -10 12
-10 19 -2 27 7 7 8 16 2 23 -6 7 -3 11 10 11 10 0 16 -4 14 -8 -3 -4 -1 -8 4
-8 6 0 19 -16 30 -35 20 -33 20 -34 1 -40 -10 -4 -19 -13 -19 -21 0 -8 5 -12
10 -9 6 3 10 4 10 2 0 -2 -18 -16 -40 -31 -22 -14 -40 -32 -40 -38 0 -6 10 -2
23 9 15 15 28 18 42 13 17 -7 16 -8 -10 -11 -21 -3 -30 -10 -31 -24 -1 -11 -2
-26 -3 -32 -1 -7 -6 -13 -12 -13 -6 0 -9 6 -6 13 3 8 -1 14 -9 14 -7 0 -13 -7
-12 -16 1 -9 0 -27 0 -40 -2 -20 -4 -21 -17 -11 -10 9 -15 9 -15 1 0 -6 -9
-11 -20 -11 -11 0 -20 -4 -20 -9 0 -5 -7 -11 -15 -15 -13 -5 -14 -2 -4 15 6
11 8 23 5 26 -3 3 -8 -1 -11 -9 -4 -9 -16 -14 -30 -12 -14 1 -28 -3 -31 -8 -5
-7 2 -9 18 -5 21 6 26 3 30 -16 5 -28 0 -47 -13 -47 -6 0 -8 4 -5 9 8 12 -4
41 -16 41 -6 0 -5 -6 2 -15 9 -11 9 -15 1 -15 -7 0 -9 -4 -6 -10 3 -5 2 -10
-3 -10 -6 0 -13 7 -16 16 -4 9 -13 14 -21 10 -8 -3 -15 0 -15 6 0 7 -5 6 -15
-2 -12 -10 -15 -10 -15 1 0 7 -10 3 -25 -11 -14 -13 -25 -28 -24 -34 4 -33 -2
-41 -16 -22 -15 19 -15 19 -16 -5 -1 -13 -1 -30 0 -36 1 -7 -4 -13 -12 -13 -7
0 -19 6 -27 13 -12 10 -12 9 -1 -5 10 -14 11 -18 1 -18 -7 0 -2 -9 11 -20 l24
-19 -29 8 c-23 5 -34 3 -48 -11 -10 -10 -18 -23 -18 -29 0 -7 -11 -4 -26 6
-15 9 -24 13 -20 7 3 -5 -5 -12 -19 -14 -14 -3 -25 -1 -25 5 0 7 -4 7 -12 -1
-7 -7 -16 -12 -21 -12 -9 0 -6 42 4 50 3 3 9 20 12 39 6 30 5 32 -10 20 -15
-12 -16 -12 -11 7 3 14 0 21 -9 21 -8 0 -12 -6 -9 -12 2 -7 -1 -18 -7 -24 -9
-9 -8 -11 4 -6 10 4 19 0 22 -9 4 -9 2 -16 -3 -16 -6 0 -10 -9 -10 -19 0 -15
-5 -19 -21 -16 -17 4 -19 2 -8 -11 10 -12 9 -13 -5 -8 -12 4 -16 1 -16 -14 0
-12 5 -24 10 -27 6 -3 10 -14 9 -23 0 -12 -3 -11 -9 6 -5 12 -14 22 -21 22 -6
0 -9 -7 -5 -15 3 -8 -3 -19 -14 -25 -32 -17 -47 -11 -22 9 25 22 29 41 7 41
-14 0 -13 3 1 25 9 14 12 25 7 25 -16 0 -53 -40 -53 -57 0 -12 -3 -13 -14 -4
-8 7 -12 20 -9 30 3 11 0 28 -6 39 -7 14 -8 23 -1 27 5 3 10 16 10 28 -1 17
-5 14 -20 -16 -10 -21 -16 -45 -13 -54 4 -9 -1 -21 -9 -27 -8 -6 -15 -15 -14
-21 1 -5 -7 -11 -16 -13 -13 -3 -18 3 -18 22 0 27 15 43 25 26 7 -12 25 -4 25
11 0 6 -5 7 -11 3 -8 -5 -10 1 -5 19 3 14 2 29 -4 32 -5 3 -10 1 -10 -4 0 -6
-10 -11 -21 -11 -16 0 -20 5 -16 20 6 22 0 25 -22 11 -8 -5 -11 -16 -6 -30 4
-12 2 -21 -4 -21 -6 0 -11 5 -11 12 0 8 -3 9 -11 1 -10 -10 -14 -62 -11 -143
2 -47 -1 -80 -8 -80 -3 0 -5 -13 -5 -30 -1 -16 2 -30 6 -30 3 0 5 -12 3 -26
-1 -14 0 -23 3 -20 8 8 32 -20 36 -41 1 -10 6 -24 11 -31 5 -9 1 -19 -13 -28
-12 -8 -21 -24 -21 -34 0 -11 -5 -17 -12 -15 -8 3 -13 22 -13 44 0 22 3 37 8
34 4 -2 7 3 7 11 0 9 -5 16 -11 16 -5 0 -7 5 -4 10 4 6 1 17 -5 25 -6 8 -9 19
-5 25 3 5 1 10 -5 10 -6 0 -10 -8 -8 -18 2 -11 -1 -18 -7 -18 -5 1 -10 7 -10
14 0 7 -6 16 -13 21 -19 11 -4 41 16 33 13 -4 15 -3 6 9 -13 17 -12 27 5 58
12 21 11 23 -3 18 -9 -4 -15 -1 -13 6 1 7 -6 11 -15 9 -10 -2 -18 2 -18 8 0 6
5 8 10 5 6 -3 11 -1 11 4 2 11 5 26 9 39 1 4 3 12 5 17 1 6 3 12 5 15 1 3 3
20 5 38 1 19 8 39 13 44 8 8 9 4 6 -13 l-6 -24 16 25 c22 36 36 69 36 86 0 12
-2 12 -14 2 -8 -7 -12 -22 -10 -32 4 -24 -6 -42 -15 -27 -5 7 -15 6 -34 -4
-15 -8 -29 -10 -32 -4 -4 5 -1 9 4 9 6 0 11 7 11 16 0 8 -4 13 -9 10 -4 -3 -6
7 -4 22 3 26 3 26 -8 5 -13 -24 -31 -31 -27 -10 3 16 -11 57 -20 57 -18 0 -58
-37 -54 -49 3 -9 0 -11 -8 -6 -9 5 -11 4 -6 -3 7 -12 -12 -52 -31 -65 -18 -11
-16 -30 2 -23 17 6 22 -29 5 -39 -5 -3 -10 -13 -10 -21 0 -9 5 -12 12 -8 7 5
8 3 4 -5 -5 -7 -14 -10 -22 -7 -8 3 -14 0 -14 -7 0 -6 -7 -2 -15 10 -9 12 -15
26 -14 30 1 4 1 17 0 28 -2 19 -2 19 -15 2 -7 -9 -14 -45 -15 -79 -1 -34 -3
-64 -6 -66 -10 -10 -16 7 -17 47 0 31 -4 41 -17 42 -10 0 -11 2 -3 6 6 2 12
11 12 19 0 8 4 14 9 14 12 0 44 50 37 58 -4 3 -12 -1 -19 -9 -6 -8 -11 -13
-10 -11 0 2 -2 16 -7 30 -4 15 -3 38 3 52 14 35 14 80 0 80 -14 0 -53 -49 -77
-97 -20 -39 -21 -57 -1 -23 17 30 19 22 4 -17 -6 -15 -11 -50 -10 -76 0 -37
-3 -47 -14 -43 -8 2 -16 0 -18 -7 -2 -7 -8 -9 -12 -5 -4 4 2 16 15 26 l22 18
-28 -1 c-24 0 -29 -4 -27 -23 2 -13 -5 -27 -17 -34 -11 -7 -20 -20 -21 -28 0
-10 -3 -8 -8 5 -5 11 -5 29 -1 40 4 11 6 30 4 43 -3 17 1 22 16 22 11 0 20 6
20 14 0 7 7 19 15 26 8 7 15 22 15 34 -1 20 -1 20 -15 2 -8 -10 -16 -24 -18
-30 -2 -6 -7 -8 -11 -5 -10 9 15 59 29 59 10 0 22 30 29 72 2 11 44 48 56 48
5 0 10 5 10 11 0 5 5 7 10 4 6 -3 17 0 25 9 18 18 20 30 3 21 -7 -4 -3 2 10
13 27 24 28 34 5 31 -39 -3 -45 1 -38 24 13 44 13 117 -2 117 -7 0 -14 -8 -14
-17 -3 -43 -5 -48 -16 -48 -7 0 -20 -10 -28 -22 -9 -13 -11 -23 -6 -23 6 0 11
-8 11 -17 0 -16 -1 -16 -16 -1 -13 13 -14 20 -4 38 9 18 9 25 -4 39 -15 16
-15 19 -1 31 8 7 16 10 16 6 1 -3 2 -10 3 -15 3 -21 12 -18 14 5 1 13 9 37 18
52 l16 27 -21 -25 -21 -25 0 24 0 23 -21 -23 c-20 -24 -20 -24 -9 -1 8 16 8
22 -1 22 -7 0 -9 9 -5 25 4 14 2 25 -4 25 -5 0 -10 -3 -10 -7 0 -5 -3 -19 -7
-32 -5 -18 -3 -22 7 -16 10 6 12 3 8 -13 -4 -12 -2 -25 3 -28 6 -3 5 -11 -2
-20 -6 -8 -9 -25 -7 -39 3 -13 1 -22 -3 -19 -5 3 -9 18 -9 35 0 18 -5 29 -14
29 -9 0 -12 -8 -8 -25 3 -17 0 -25 -10 -25 -22 0 -52 26 -44 38 11 19 26 14
26 -8 0 -11 5 -20 11 -20 6 0 8 7 5 16 -3 8 -1 25 5 36 10 18 9 20 -6 14 -15
-5 -16 -4 -5 9 9 11 9 15 1 15 -8 0 -10 8 -6 20 3 11 2 20 -3 20 -5 0 -12 -10
-16 -22 -5 -22 -6 -22 -20 -3 -12 17 -12 23 6 50 20 29 20 29 -13 -4 -34 -36
-52 -28 -25 11 19 26 20 38 5 38 -5 0 -8 -4 -4 -9 3 -5 1 -12 -4 -15 -11 -7
-23 67 -14 90 4 12 2 15 -8 12 -8 -3 -14 -9 -14 -14 0 -5 -4 -14 -8 -21 -4 -6
-1 -14 5 -16 8 -3 6 -6 -4 -6 -10 -1 -18 -5 -18 -11 0 -5 -7 -10 -15 -10 -12
0 -14 4 -5 19 7 13 7 22 0 26 -5 3 -10 1 -10 -4 0 -6 -5 -11 -11 -11 -6 0 -1
13 11 30 19 26 19 29 3 23 -14 -6 -13 -1 7 24 23 29 50 47 35 24 -3 -5 -1 -12
3 -15 5 -3 14 6 21 21 10 21 9 28 -1 34 -11 7 -11 9 0 9 7 0 12 8 10 18 -1 9
5 28 15 42 13 19 17 21 17 7 0 -9 3 -17 8 -17 10 0 9 66 -1 76 -4 5 -13 2 -18
-6 -8 -11 -9 -10 -4 8 4 13 2 22 -5 22 -6 0 -15 -10 -20 -22 -5 -13 -9 -16 -9
-8 -1 8 14 29 32 48 18 19 25 30 15 27 -24 -10 -22 4 5 33 17 19 18 24 5 19
-21 -7 -14 19 8 27 8 3 14 14 14 24 0 10 4 22 9 28 5 5 12 27 15 49 4 21 12
42 18 46 6 4 8 11 4 17 -3 5 1 12 9 16 8 3 15 10 15 16 0 6 -4 8 -10 5 -15 -9
-12 2 6 19 8 9 18 28 20 43 10 56 180 165 242 155 18 -2 30 -7 28 -11z m3044
8 c-11 -8 -8 -9 13 -4 19 4 26 2 22 -5 -3 -5 -3 -10 2 -10 4 0 19 -3 32 -7 19
-5 22 -3 16 7 -5 8 6 4 24 -9 18 -13 40 -21 51 -18 11 3 20 1 20 -4 0 -6 6 -9
13 -7 19 3 57 -12 57 -23 0 -6 5 -7 10 -4 6 3 10 1 10 -5 0 -7 7 -9 16 -6 9 3
12 2 8 -5 -4 -6 1 -10 12 -8 11 1 27 -1 37 -6 14 -6 15 -10 6 -21 -12 -15 -33
-9 -24 7 3 5 -1 6 -9 3 -16 -6 -72 20 -95 45 -9 10 -12 10 -6 2 8 -12 6 -13
-10 -7 -11 5 -31 11 -45 14 -14 2 -29 8 -35 12 -13 10 -158 50 -188 51 -12 1
-4 5 18 9 59 11 61 11 45 -1z m-1078 -36 c-3 -16 -7 -22 -10 -15 -4 13 4 42
11 42 2 0 2 -12 -1 -27z m1428 0 c46 -15 74 -33 52 -33 -21 0 -121 41 -128 52
-5 8 -1 9 12 4 10 -4 39 -14 64 -23z m-2410 -2 c0 -12 -20 -25 -27 -18 -7 7 6
27 18 27 5 0 9 -4 9 -9z m1464 -48 c-17 -49 -17 -237 0 -328 19 -96 45 -188
57 -200 7 -7 8 -4 4 8 -5 10 -2 17 5 17 6 0 14 -9 17 -20 3 -11 8 -18 12 -16
4 3 16 -9 26 -25 11 -16 26 -29 33 -29 7 0 10 -4 7 -10 -3 -5 -1 -10 4 -10 6
0 11 7 11 15 0 21 17 19 24 -3 4 -10 13 -19 20 -19 8 0 12 6 8 15 -4 12 -1 12
20 -2 13 -9 28 -13 31 -9 4 3 7 2 7 -3 0 -5 12 -11 28 -12 15 -1 29 -7 30 -12
6 -16 52 -12 52 5 0 15 35 15 60 0 16 -10 12 5 -11 37 -12 16 -18 32 -14 36 8
8 95 9 95 1 0 -3 11 -11 25 -17 21 -10 27 -9 31 3 5 12 9 11 26 -5 39 -36 37
-10 -4 58 -56 93 -95 140 -137 167 -46 30 -97 75 -85 75 5 0 0 7 -10 15 -11 8
-17 15 -13 16 77 11 207 -50 207 -97 0 -13 4 -24 10 -24 5 0 13 -12 16 -26 4
-15 10 -22 15 -17 18 18 -19 79 -83 138 -36 33 -71 61 -79 63 -23 6 -38 23
-33 36 3 8 -2 16 -11 20 -9 3 -13 10 -10 16 4 6 12 7 18 3 7 -4 7 0 -1 10 -8
9 -11 21 -7 27 3 5 2 10 -3 10 -5 0 -9 7 -9 15 0 8 4 15 8 15 4 0 5 8 3 18 -6
24 9 43 34 45 12 1 22 5 22 10 0 5 6 7 13 4 8 -3 20 -1 28 3 8 5 19 4 28 -3
12 -9 13 -9 7 0 -14 25 92 -49 155 -107 35 -33 67 -60 72 -60 4 0 7 -6 7 -14
0 -8 13 -15 33 -17 46 -6 78 1 75 14 -2 7 2 12 7 12 6 0 11 -4 11 -10 1 -5 2
-13 3 -18 0 -4 12 0 26 9 14 9 25 12 26 8 0 -5 6 7 13 26 16 44 8 63 -9 22
-14 -31 -34 -50 -36 -33 -4 43 -1 60 17 77 l19 20 41 -27 c46 -31 107 -102
119 -137 6 -20 -1 -31 -47 -72 -56 -51 -61 -72 -10 -43 32 18 72 78 72 107 0
19 16 22 18 4 0 -7 6 -44 13 -83 9 -55 9 -86 -1 -143 -6 -39 -15 -70 -18 -68
-4 2 -8 -8 -9 -22 -1 -15 -14 -54 -29 -87 -15 -33 -28 -64 -30 -70 -2 -9 -10
-24 -69 -122 -11 -18 -25 -33 -32 -33 -7 0 -16 -6 -20 -14 -22 -38 -156 -88
-167 -62 -3 7 -8 6 -14 -3 -8 -11 -28 -13 -93 -7 -46 3 -95 9 -109 12 -217 53
-397 157 -450 261 -8 15 -17 30 -20 33 -12 11 -78 168 -93 220 -38 132 -43
376 -9 428 20 31 22 28 6 -15z m442 25 c4 -7 3 -8 -4 -4 -7 4 -12 2 -12 -5 0
-7 -3 -10 -6 -6 -6 5 3 27 11 27 2 0 7 -5 11 -12z m39 2 c3 -6 -1 -7 -9 -4
-18 7 -21 14 -7 14 6 0 13 -4 16 -10z m-1000 -90 c-34 -100 -81 -183 -143
-252 -61 -69 -96 -100 -132 -117 l-25 -12 25 20 c124 102 220 241 279 404 6
15 13 27 15 27 3 0 -6 -31 -19 -70z m339 48 c19 -18 25 -35 28 -80 3 -32 4
-58 3 -58 -1 0 -19 28 -40 63 -21 34 -45 66 -52 70 -21 13 -15 27 11 27 14 0
36 -10 50 -22z m913 0 c-3 -8 -6 -5 -6 6 -1 11 2 17 5 13 3 -3 4 -12 1 -19z
m-345 -10 c-7 -7 -12 -8 -12 -2 0 14 12 26 19 19 2 -3 -1 -11 -7 -17z m684 -3
c10 -8 15 -14 9 -14 -5 0 -19 6 -29 14 -11 8 -15 15 -10 15 6 0 19 -7 30 -15z
m66 -9 c3 3 8 -2 11 -10 4 -9 1 -18 -5 -22 -7 -4 -8 -3 -4 4 4 7 1 12 -7 12
-8 0 -21 7 -28 17 -13 15 -12 15 7 5 12 -6 24 -9 26 -6z m-3332 -51 c0 -12
-19 -12 -23 0 -4 9 -1 12 9 8 7 -3 14 -7 14 -8z m35 -34 c-6 -5 -25 10 -25 20
0 5 6 4 14 -3 8 -7 12 -15 11 -17z m3245 -3 c0 -5 7 -16 15 -25 9 -8 14 -18
11 -20 -7 -8 -55 50 -56 66 0 11 3 11 15 1 8 -7 15 -17 15 -22z m210 -23 c22
-26 -12 -49 -37 -24 -14 14 -6 39 12 39 7 0 18 -7 25 -15z m-490 -10 c-7 -9
-15 -13 -19 -10 -3 3 1 10 9 15 21 14 24 12 10 -5z m334 -23 c3 -5 -1 -9 -9
-9 -8 0 -12 4 -9 9 3 4 7 8 9 8 2 0 6 -4 9 -8z m-3074 -52 c0 -5 -4 -10 -10
-10 -5 0 -10 5 -10 10 0 6 5 10 10 10 6 0 10 -4 10 -10z m3224 -17 c4 -9 2
-21 -3 -26 -15 -15 -41 0 -41 23 0 25 35 28 44 3z m-3234 -13 c0 -5 -4 -10
-10 -10 -5 0 -10 5 -10 10 0 6 5 10 10 10 6 0 10 -4 10 -10z m300 -26 c0 -9 5
-12 12 -8 7 4 8 3 4 -5 -8 -13 -26 -6 -26 11 0 6 -8 17 -17 25 -16 13 -16 13
5 3 12 -6 22 -18 22 -26z m1140 2 c0 -3 -4 -8 -10 -11 -5 -3 -10 -1 -10 4 0 6
5 11 10 11 6 0 10 -2 10 -4z m23 -31 c-3 -9 -8 -14 -10 -11 -3 3 -2 9 2 15 9
16 15 13 8 -4z m-2524 -22 c0 -25 -1 -26 -9 -8 -12 27 -12 35 0 35 6 0 10 -12
9 -27z m1261 -14 c0 -6 -4 -7 -10 -4 -5 3 -10 11 -10 16 0 6 5 7 10 4 6 -3 10
-11 10 -16z m1220 -4 c-16 -17 -27 -22 -35 -15 -9 7 -16 6 -25 -5 -12 -14 -7
-19 13 -16 5 1 6 -3 2 -9 -5 -8 -11 -8 -19 -1 -7 6 -15 10 -17 8 -3 -1 6 9 19
23 16 18 25 22 30 13 6 -9 12 -7 22 7 8 11 19 20 24 20 5 0 -1 -11 -14 -25z
m-1250 11 c0 -3 -4 -8 -10 -11 -5 -3 -10 -1 -10 4 0 6 5 11 10 11 6 0 10 -2
10 -4z m1310 -10 c0 -3 -4 -8 -10 -11 -5 -3 -10 -1 -10 4 0 6 5 11 10 11 6 0
10 -2 10 -4z m-1426 -22 c3 -8 2 -12 -4 -9 -6 3 -10 10 -10 16 0 14 7 11 14
-7z m182 -5 c19 -22 19 -22 -3 -8 -13 8 -23 17 -23 21 0 12 6 9 26 -13z
m-1258 -18 c3 -8 -1 -12 -9 -9 -7 2 -15 10 -17 17 -3 8 1 12 9 9 7 -2 15 -10
17 -17z m3377 -21 c-4 -6 5 -10 19 -10 16 0 26 -6 26 -15 0 -8 6 -15 14 -15
22 0 28 -31 9 -45 -13 -10 -27 -9 -74 8 l-57 21 32 33 c32 33 42 41 31 23z
m-1508 -66 c-3 -3 -12 -4 -19 -1 -8 3 -5 6 6 6 11 1 17 -2 13 -5z m783 2 c0
-3 -4 -8 -10 -11 -5 -3 -10 -1 -10 4 0 6 5 11 10 11 6 0 10 -2 10 -4z m-1510
-28 c0 -4 -4 -8 -9 -8 -6 0 -12 4 -15 8 -3 5 1 9 9 9 8 0 15 -4 15 -9z m-1134
-14 c-3 -9 -6 -18 -6 -20 0 -2 -7 -4 -15 -4 -18 0 -19 12 -3 28 17 17 31 15
24 -4z m104 -3 c0 -6 -4 -13 -10 -16 -5 -3 -10 1 -10 9 0 9 5 16 10 16 6 0 10
-4 10 -9z m-50 -21 c0 -5 -5 -10 -11 -10 -5 0 -7 5 -4 10 3 6 8 10 11 10 2 0
4 -4 4 -10z m-50 -40 c0 -5 8 -7 18 -4 14 5 14 4 2 -4 -8 -6 -17 -9 -21 -6 -4
2 -13 -22 -20 -53 -15 -69 -46 -136 -59 -128 -6 4 -10 27 -10 53 0 37 7 57 36
99 34 50 54 66 54 43z m1210 -60 c0 -5 10 -10 23 -10 16 0 18 -3 8 -9 -9 -6
-10 -10 -2 -16 7 -4 19 -1 28 7 13 9 12 6 -2 -13 -11 -15 -24 -25 -30 -22 -14
5 -45 73 -34 73 5 0 9 -4 9 -10z m204 -56 c5 -14 4 -15 -9 -4 -17 14 -19 20
-6 20 5 0 12 -7 15 -16z m56 -30 c0 -2 -7 -4 -15 -4 -8 0 -15 4 -15 10 0 5 7
7 15 4 8 -4 15 -8 15 -10z m30 6 c0 -5 -2 -10 -4 -10 -3 0 -8 5 -11 10 -3 6
-1 10 4 10 6 0 11 -4 11 -10z m-237 -17 c-7 -2 -13 -11 -13 -19 0 -8 -4 -14
-9 -14 -7 0 -8 17 -2 38 1 1 9 2 19 1 10 0 12 -3 5 -6z m-1195 -47 c2 -24 -18
-30 -35 -11 -4 4 -2 5 5 1 8 -5 12 0 12 13 0 29 15 26 18 -3z m2639 1 c-6 -20
-26 -19 -24 1 1 12 6 18 14 15 8 -3 12 -10 10 -16z m-1082 -15 c-3 -3 -11 0
-18 7 -9 10 -8 11 6 5 10 -3 15 -9 12 -12z m435 8 c0 -5 -4 -10 -10 -10 -5 0
-10 5 -10 10 0 6 5 10 10 10 6 0 10 -4 10 -10z m-2098 -47 c7 -9 7 -13 -1 -13
-6 0 -11 -4 -11 -10 0 -5 7 -10 15 -10 9 0 12 -6 9 -15 -4 -8 -10 -15 -16 -15
-5 0 -7 4 -4 9 4 5 -3 7 -15 4 -17 -5 -19 -2 -14 18 3 13 7 35 9 49 6 36 8 37
13 15 3 -11 10 -26 15 -32z m1735 31 c-3 -3 -12 -4 -19 -1 -8 3 -5 6 6 6 11 1
17 -2 13 -5z m-1605 -48 c15 2 27 0 27 -4 -3 -21 3 -32 19 -32 15 -1 15 -2 2
-13 -10 -7 -15 -27 -15 -52 1 -39 -3 -53 -24 -85 -9 -13 -12 -12 -26 5 -14 19
-15 17 -11 -27 2 -27 0 -46 -5 -42 -5 3 -9 0 -9 -7 0 -6 -8 -9 -19 -6 -13 3
-22 -1 -25 -12 -2 -9 -3 -1 -1 18 2 18 13 42 24 52 28 27 26 37 -6 31 -23 -4
-25 -3 -12 10 7 9 21 13 29 10 13 -5 13 -3 1 11 -12 15 -11 17 3 17 9 0 16 3
17 8 13 93 4 128 -19 77 -18 -40 -31 -30 -20 15 8 32 14 38 27 31 9 -4 28 -6
43 -5z m-162 -56 c0 -5 -5 -10 -11 -10 -5 0 -7 5 -4 10 3 6 8 10 11 10 2 0 4
-4 4 -10z m80 -30 c0 -5 -6 -10 -12 -10 -10 0 -9 -3 1 -9 11 -7 9 -11 -8 -20
-19 -11 -21 -9 -21 13 0 22 10 33 33 35 4 1 7 -3 7 -9z m-88 -72 c2 -13 1 -35
-3 -50 -9 -33 -2 -40 25 -26 19 10 20 9 8 -5 -10 -12 -11 -21 -3 -36 15 -27
14 -34 -3 -28 -8 3 -17 -1 -20 -9 -3 -8 -1 -14 4 -14 5 0 6 -8 3 -17 -11 -29
-34 55 -36 135 -1 50 2 72 10 72 6 0 13 -10 15 -22z m308 -8 c0 -5 -4 -10 -10
-10 -5 0 -10 5 -10 10 0 6 5 10 10 10 6 0 10 -4 10 -10z m-270 -30 c-6 -11
-13 -20 -15 -20 -3 0 -5 9 -5 20 0 11 7 20 15 20 13 0 14 -4 5 -20z m360 16
c0 -11 -19 -15 -25 -6 -3 5 1 10 9 10 9 0 16 -2 16 -4z m1365 -6 c-3 -5 -1
-10 5 -10 6 0 8 -5 4 -12 -4 -6 1 -17 11 -25 11 -7 13 -13 6 -13 -7 0 -9 -5
-5 -12 4 -8 3 -10 -2 -5 -5 5 -9 14 -9 20 0 7 -11 11 -23 10 -27 -3 -28 5 -4
23 14 11 14 13 2 14 -13 0 -13 1 0 10 19 12 23 12 15 0z m43 -25 c-3 -3 -9 2
-12 12 -6 14 -5 15 5 6 7 -7 10 -15 7 -18z m-1641 -17 c-3 -8 -6 -5 -6 6 -1
11 2 17 5 13 3 -3 4 -12 1 -19z m-116 -31 c-6 -6 -14 -7 -18 -2 -5 4 -2 10 5
12 6 3 13 12 13 21 1 14 2 14 6 -2 3 -10 0 -23 -6 -29z m344 24 c3 -5 1 -12
-5 -16 -5 -3 -10 1 -10 9 0 18 6 21 15 7z m-78 -66 c-26 -40 -39 -44 -35 -12
4 28 29 56 45 50 7 -3 4 -15 -10 -38z m1319 10 c-16 -17 -36 -20 -36 -6 0 8
17 16 43 20 5 0 2 -6 -7 -14z m57 1 c4 -10 1 -13 -8 -9 -8 3 -12 9 -9 14 7 12
11 11 17 -5z m-108 -16 c3 -5 1 -10 -4 -10 -6 0 -11 5 -11 10 0 6 2 10 4 10 3
0 8 -4 11 -10z m-1321 -15 c-6 -16 -24 -21 -24 -7 0 11 11 22 21 22 5 0 6 -7
3 -15z m-184 -5 c0 -5 -5 -10 -11 -10 -5 0 -7 5 -4 10 3 6 8 10 11 10 2 0 4
-4 4 -10z m1360 0 c9 -5 19 -5 26 1 9 7 17 3 28 -12 19 -28 16 -32 -18 -20
-14 6 -25 7 -25 3 3 -21 -3 -32 -17 -32 -11 0 -13 -6 -9 -19 3 -11 1 -22 -4
-25 -6 -4 -8 8 -6 29 2 19 -1 35 -7 35 -5 0 -6 5 -3 10 3 6 1 10 -6 10 -8 0
-8 4 1 15 14 17 20 18 40 5z m-1395 -30 c-3 -5 -11 -10 -16 -10 -6 0 -7 5 -4
10 3 6 11 10 16 10 6 0 7 -4 4 -10z m603 -35 c0 -35 -12 -47 -21 -22 -3 6 -6
2 -6 -10 -1 -15 4 -20 17 -17 17 5 18 -7 13 -128 -1 -10 -6 -18 -12 -18 -6 0
-9 7 -5 15 3 8 1 25 -4 37 -7 19 -9 19 -9 5 -1 -10 -6 -15 -11 -12 -6 4 -8 16
-4 28 6 20 5 21 -11 7 -17 -14 -18 -13 -13 8 4 14 2 20 -4 16 -6 -4 -8 -1 -6
7 3 8 11 13 17 12 6 -2 11 3 12 10 3 53 21 95 41 97 3 0 6 -16 6 -35z m852 9
c0 -2 -9 -4 -20 -4 -11 0 -20 4 -20 9 0 5 9 7 20 4 11 -3 20 -7 20 -9z m62 -2
c-7 -2 -10 -7 -7 -12 3 -4 -4 -6 -15 -3 -11 3 -20 9 -20 14 0 5 7 6 15 3 8 -4
15 -1 15 6 0 6 5 8 12 4 9 -6 9 -9 0 -12z m-178 -23 c-3 -6 -1 -15 6 -19 7 -4
9 -13 6 -19 -12 -19 -21 -12 -23 19 -1 17 2 30 8 30 6 0 7 -5 3 -11z m82 -5
c-3 -8 3 -18 12 -23 9 -6 12 -11 5 -11 -13 0 -43 27 -43 39 0 4 7 8 15 8 9 0
14 -6 11 -13z m-1466 -24 c0 -5 -2 -10 -4 -10 -2 0 -12 -3 -22 -7 -16 -6 -17
-5 -4 10 17 19 30 22 30 7z m418 -21 c2 -13 11 -30 20 -36 14 -12 14 -13 -2
-13 -10 0 -20 9 -23 19 -3 13 -10 17 -20 14 -13 -5 -13 -2 -5 14 6 11 8 24 4
28 -4 4 0 6 8 3 8 -2 16 -15 18 -29z m-167 -31 c-5 -23 -13 -33 -24 -32 -9 1
-17 -1 -18 -5 0 -3 -3 -19 -5 -35 l-5 -30 20 25 c11 13 20 20 21 15 0 -4 -13
-23 -28 -41 l-29 -32 -2 50 c-1 40 4 56 24 83 34 45 55 45 46 2z m589 8 c0 -2
-7 -6 -15 -10 -8 -3 -15 -1 -15 4 0 6 7 10 15 10 8 0 15 -2 15 -4z m481 -28
c-11 -11 -12 -10 -6 1 6 11 4 13 -10 7 -15 -5 -16 -4 -5 9 9 11 16 13 24 5 7
-7 6 -14 -3 -22z m59 0 c0 -7 -5 -6 -13 1 -8 6 -18 7 -22 3 -5 -4 -5 -2 -1 5
8 14 36 6 36 -9z m-69 -38 c6 0 7 5 4 11 -4 6 2 5 14 -3 20 -12 20 -13 1 -20
-27 -10 -50 0 -50 23 0 10 -5 19 -11 19 -5 0 -7 5 -3 11 4 8 12 2 21 -15 7
-14 18 -26 24 -26z m-506 30 c3 -5 2 -10 -4 -10 -5 0 -13 5 -16 10 -3 6 -2 10
4 10 5 0 13 -4 16 -10z m410 -20 c-5 -28 2 -36 29 -31 5 1 6 -8 3 -21 -4 -12
-1 -28 5 -35 22 -27 -6 -12 -36 20 -17 17 -35 31 -40 29 -5 -2 -4 4 4 12 19
24 0 19 -27 -6 -13 -12 -23 -16 -23 -10 0 6 9 16 20 22 11 6 18 15 15 20 -4 6
18 19 53 29 1 1 0 -12 -3 -29z m-115 16 c0 -11 -19 -15 -25 -6 -3 5 1 10 9 10
9 0 16 -2 16 -4z m168 -34 c11 -23 10 -24 -7 -8 -10 9 -21 13 -24 9 -4 -3 -7
0 -7 9 0 23 25 17 38 -10z m-1108 8 c0 -5 -2 -10 -4 -10 -3 0 -8 5 -11 10 -3
6 -1 10 4 10 6 0 11 -4 11 -10z m956 -16 c-11 -7 -22 -12 -25 -9 -2 3 4 12 15
19 10 8 21 12 24 9 3 -2 -4 -11 -14 -19z m-515 -27 c-16 -16 -25 -1 -10 16 8
8 16 11 18 5 2 -5 -2 -15 -8 -21z m280 -20 c-7 -7 -9 -1 -6 19 5 40 7 43 12
15 3 -13 0 -28 -6 -34z m-721 33 c-1 -9 -27 -40 -34 -40 -3 0 -6 11 -6 24 0
19 5 24 20 23 11 -1 20 -4 20 -7z m1180 2 c0 -5 -7 -9 -15 -9 -8 0 -12 4 -9 9
3 4 9 8 15 8 5 0 9 -4 9 -8z m-922 -38 c2 -23 0 -25 -13 -14 -12 10 -13 16 -4
26 15 18 14 18 17 -12z m92 5 c0 -6 -4 -7 -10 -4 -5 3 -10 11 -10 16 0 6 5 7
10 4 6 -3 10 -11 10 -16z m-198 -15 c-7 -12 -11 -13 -17 -4 -4 7 -2 16 6 21
18 11 23 4 11 -17z m520 17 c-8 -4 -13 -12 -12 -17 1 -5 -4 -10 -10 -12 -9 -3
-9 1 -1 17 7 11 17 21 24 21 8 0 8 -3 -1 -9z m-597 -28 c1 -15 -6 -24 -24 -28
-13 -3 -31 -14 -38 -23 -7 -9 -13 -12 -13 -6 0 7 11 22 25 35 13 13 25 30 25
37 0 22 23 8 25 -15z m329 3 c-3 -9 -10 -16 -15 -16 -6 0 -5 9 1 21 13 24 24
20 14 -5z m61 14 c3 -5 1 -10 -4 -10 -6 0 -11 5 -11 10 0 6 2 10 4 10 3 0 8
-4 11 -10z m579 2 c2 -4 1 -14 -5 -22 -5 -8 -9 -11 -9 -6 0 6 -7 1 -16 -10 -8
-11 -13 -12 -10 -4 3 8 9 23 12 33 7 18 19 22 28 9z m-840 -37 c-3 -8 -12 -11
-20 -8 -10 4 -11 9 -4 18 5 6 6 16 2 21 -4 4 1 3 10 -5 9 -7 14 -19 12 -26z
m131 25 c3 -5 1 -10 -4 -10 -6 0 -11 5 -11 10 0 6 2 10 4 10 3 0 8 -4 11 -10z
m105 -9 c0 -5 -7 -17 -16 -25 -8 -9 -13 -20 -9 -25 3 -5 2 -12 -3 -15 -13 -8
-12 25 0 52 11 22 28 30 28 13z m280 -1 c0 -5 -5 -10 -11 -10 -5 0 -7 5 -4 10
3 6 8 10 11 10 2 0 4 -4 4 -10z m-450 -38 c-25 -4 -35 2 -26 17 5 7 13 7 27
-2 20 -12 20 -12 -1 -15z m555 18 c-3 -5 -12 -10 -18 -10 -7 0 -6 4 3 10 19
12 23 12 15 0z m-493 -22 c-7 -7 -12 -8 -12 -2 0 14 12 26 19 19 2 -3 -1 -11
-7 -17z m768 12 c0 -5 -4 -10 -10 -10 -5 0 -10 5 -10 10 0 6 5 10 10 10 6 0
10 -4 10 -10z m13 -30 c-23 -22 -28 -18 -13 9 6 12 16 19 21 15 6 -4 3 -13 -8
-24z m1497 20 c0 -5 -2 -10 -4 -10 -3 0 -8 5 -11 10 -3 6 -1 10 4 10 6 0 11
-4 11 -10z m-1526 -9 c3 -4 -2 -17 -10 -27 -14 -17 -15 -17 -10 -1 3 9 1 17
-5 17 -6 0 -7 5 -4 10 8 12 22 13 29 1z m1576 -25 c-6 -6 -15 -4 -25 4 -23 19
-18 29 9 17 15 -7 21 -16 16 -21z m-2375 -6 c-6 -9 -9 -9 -16 1 -10 17 0 34
13 21 6 -6 7 -16 3 -22z m201 -40 c4 -19 6 -39 5 -45 -5 -16 -5 -28 3 -58 4
-18 2 -27 -6 -27 -6 0 -20 -8 -31 -17 -18 -17 -18 -17 -6 12 7 17 17 35 21 42
5 6 5 14 0 17 -5 3 -7 27 -4 54 2 28 0 52 -6 56 -6 3 -9 -12 -8 -40 2 -52 -5
-61 -22 -34 -7 12 -8 21 -2 25 6 4 4 15 -6 30 -14 22 -14 24 7 39 21 14 24 14
35 -2 6 -9 15 -33 20 -52z m-305 24 c-11 -15 -21 -24 -21 -20 0 12 33 57 37
52 3 -3 -4 -17 -16 -32z m859 26 c0 -5 -2 -10 -4 -10 -3 0 -8 5 -11 10 -3 6
-1 10 4 10 6 0 11 -4 11 -10z m-943 -35 c9 -28 8 -35 -2 -35 -8 0 -11 8 -8 20
4 14 0 20 -11 20 -19 0 -35 -32 -18 -38 6 -2 8 -11 6 -20 -8 -23 -28 -66 -34
-72 -17 -17 -33 -43 -22 -36 7 4 12 1 12 -9 0 -9 -16 -23 -35 -31 -42 -17 -48
-39 -7 -30 20 5 23 4 12 -4 -21 -14 -60 -12 -61 3 0 10 -2 10 -6 0 -2 -7 -10
-13 -16 -13 -7 1 -1 10 12 21 l24 20 -23 6 -24 6 24 9 c14 5 27 4 35 -2 9 -7
16 -6 23 3 14 17 10 40 -11 62 -17 17 -17 19 5 42 16 17 29 22 46 18 17 -4 23
-2 19 7 -2 7 -10 12 -16 11 -6 -2 -11 0 -11 3 0 8 63 73 71 73 3 1 10 -15 16
-34z m143 -30 c-8 -10 -8 -14 2 -18 8 -3 6 -6 -5 -6 -14 -1 -17 4 -12 19 6 20
-9 29 -18 10 -3 -6 -4 -5 -3 2 2 7 11 12 20 12 10 -1 17 6 17 20 2 20 2 20 6
-2 3 -13 0 -29 -7 -37z m-103 13 c-3 -8 -6 -5 -6 6 -1 11 2 17 5 13 3 -3 4
-12 1 -19z m258 -43 c-1 -28 -8 -52 -18 -62 -10 -10 -17 -12 -17 -6 0 7 5 15
10 18 6 3 10 23 10 44 0 31 6 51 15 51 0 0 0 -20 0 -45z m135 38 c0 -5 -4 -14
-9 -21 -7 -11 -9 -11 -14 1 -3 8 -3 18 0 21 9 8 23 7 23 -1z m460 -3 c0 -5 -4
-10 -10 -10 -5 0 -10 5 -10 10 0 6 5 10 10 10 6 0 10 -4 10 -10z m-816 -24
c-6 -15 -24 -23 -24 -11 0 8 24 34 28 30 1 -1 0 -10 -4 -19z m121 -16 c3 -5 1
-10 -4 -10 -6 0 -11 5 -11 10 0 6 2 10 4 10 3 0 8 -4 11 -10z m-203 -22 c-7
-7 -12 -8 -12 -2 0 14 12 26 19 19 2 -3 -1 -11 -7 -17z m112 7 c-4 -8 -8 -15
-10 -15 -2 0 -4 7 -4 15 0 8 4 15 10 15 5 0 7 -7 4 -15z m66 -19 c0 -29 -3
-33 -20 -29 -15 4 -18 9 -10 18 6 7 8 20 4 29 -4 11 -1 16 10 16 12 0 16 -9
16 -34z m719 25 c8 -5 9 -11 3 -15 -5 -3 -15 1 -22 9 -14 16 -3 20 19 6z
m-529 -27 c0 -8 -4 -14 -9 -14 -5 0 -11 -10 -15 -22 -4 -17 -8 -20 -17 -11 -8
8 -8 16 1 32 6 12 8 25 5 30 -3 5 4 7 15 4 11 -3 20 -12 20 -19z m2497 0 c9
-19 9 -32 2 -45 -11 -21 -34 -25 -44 -9 -3 6 1 10 9 10 9 0 16 7 16 16 0 14
-2 15 -17 3 -14 -12 -15 -12 -10 1 4 8 10 23 13 33 9 24 17 21 31 -9z m33 5
c0 -14 -17 -10 -23 5 -4 10 -1 13 9 9 7 -3 14 -9 14 -14z m-2815 -8 c3 -5 1
-12 -5 -16 -5 -3 -10 1 -10 9 0 18 6 21 15 7z m389 -26 c-7 -16 -24 -21 -24
-6 0 8 7 13 27 20 1 1 0 -6 -3 -14z m2446 5 c0 -5 -7 -10 -16 -10 -8 0 -12 5
-9 10 3 6 10 10 16 10 5 0 9 -4 9 -10z m-2680 -25 c0 -8 -4 -17 -10 -20 -6 -4
-7 1 -3 12 6 16 5 16 -10 4 -20 -16 -23 -6 -4 13 14 16 27 11 27 -9z m2015
-24 c-5 -31 -10 -39 -23 -35 -14 5 -13 2 2 -10 17 -14 18 -16 3 -16 -9 0 -19
11 -23 25 -3 14 -10 25 -15 25 -5 0 -8 5 -6 11 1 6 -4 14 -11 16 -8 3 -10 -1
-6 -11 5 -12 2 -15 -10 -10 -9 3 -16 13 -16 22 0 8 2 13 6 10 3 -3 26 0 52 7
26 6 49 11 50 9 2 -1 1 -21 -3 -43z m-2275 5 c0 -8 -7 -19 -15 -26 -16 -13
-18 -8 -9 27 6 23 24 22 24 -1z m292 -1 c-2 -14 -8 -25 -12 -25 -5 0 -7 8 -5
18 2 9 4 20 4 25 1 4 5 7 10 7 4 0 6 -11 3 -25z m-135 1 c-4 -10 4 -19 22 -27
17 -8 27 -18 24 -26 -4 -11 -9 -10 -24 3 -18 16 -24 12 -19 -11 1 -5 -2 -7 -6
-3 -9 10 -15 59 -8 70 9 14 17 9 11 -6z m53 -8 c0 -18 -2 -20 -9 -8 -6 8 -7
18 -5 22 9 14 14 9 14 -14z m220 13 c0 -6 -4 -13 -10 -16 -5 -3 -10 1 -10 9 0
9 5 16 10 16 6 0 10 -4 10 -9z m28 -16 c-8 -19 -14 -22 -20 -13 -5 8 -1 18 9
26 23 17 24 16 11 -13z m-371 -57 c-1 -18 -11 -42 -21 -52 -19 -19 -19 -19
-12 0 5 10 10 28 13 39 13 56 24 62 20 13z m158 12 c9 8 15 8 20 0 3 -5 -2
-13 -12 -17 -10 -3 -27 -13 -37 -22 -18 -15 -19 -15 -12 4 5 11 11 29 14 40 6
18 7 18 10 2 3 -14 7 -15 17 -7z m178 0 c6 -22 -17 -48 -28 -30 -3 5 -2 10 3
10 6 0 8 9 5 20 -3 11 -1 20 5 20 5 0 12 -9 15 -20z m-430 -10 c3 -11 1 -18
-4 -14 -5 3 -9 12 -9 20 0 20 7 17 13 -6z m-30 -45 c4 -24 3 -25 -13 -10 -12
11 -20 13 -25 6 -8 -14 -25 -14 -25 -1 0 9 32 27 51 29 4 1 9 -10 12 -24z
m-93 -5 c0 -5 -2 -10 -4 -10 -3 0 -8 5 -11 10 -3 6 -1 10 4 10 6 0 11 -4 11
-10z m-10 -32 c0 -4 -9 -8 -20 -8 -11 0 -20 4 -20 8 0 4 9 8 20 8 11 0 20 -4
20 -8z m497 -3 c0 -8 -4 -12 -9 -9 -5 3 -6 10 -3 15 9 13 12 11 12 -6z m-147
-2 c0 -5 -7 -17 -15 -27 -15 -20 -20 -10 -9 18 6 16 24 22 24 9z m-150 -7 c0
-2 -8 -10 -17 -17 -16 -13 -17 -12 -4 4 13 16 21 21 21 13z m75 -6 c3 -5 1
-10 -4 -10 -6 0 -11 5 -11 10 0 6 2 10 4 10 3 0 8 -4 11 -10z m102 -92 c-3 -8
-6 -5 -6 6 -1 11 2 17 5 13 3 -3 4 -12 1 -19z m-257 -12 c0 -11 -19 -15 -25
-6 -3 5 1 10 9 10 9 0 16 -2 16 -4z m-85 -26 c3 -5 1 -10 -4 -10 -6 0 -11 5
-11 10 0 6 2 10 4 10 3 0 8 -4 11 -10z m35 -4 c0 -3 -4 -8 -10 -11 -5 -3 -10
-1 -10 4 0 6 5 11 10 11 6 0 10 -2 10 -4z m17 -52 c-3 -3 -12 -4 -19 -1 -8 3
-5 6 6 6 11 1 17 -2 13 -5z m-100 -30 c-3 -3 -12 -4 -19 -1 -8 3 -5 6 6 6 11
1 17 -2 13 -5z m-22 -34 c3 -5 1 -10 -4 -10 -6 0 -11 5 -11 10 0 6 2 10 4 10
3 0 8 -4 11 -10z m61 -32 c5 -8 2 -9 -11 -5 -9 4 -24 2 -31 -4 -9 -7 -14 -8
-14 -1 0 20 45 29 56 10z m3064 5 c-1 -10 -29 -49 -31 -42 -9 30 -4 49 12 49
11 0 19 -3 19 -7z m-667 -379 c8 -8 -3 -34 -14 -34 -5 0 -9 9 -9 20 0 19 11
26 23 14z m496 -28 c18 -22 -2 -25 -21 -4 -14 13 -15 18 -4 18 7 0 19 -6 25
-14z m-109 -16 c6 -11 7 -20 3 -20 -5 0 -14 9 -21 20 -7 11 -8 20 -2 20 5 0
14 -9 20 -20z m81 -13 c9 -18 9 -20 -2 -9 -15 14 -33 16 -24 2 3 -6 -1 -7 -9
-4 -23 9 -20 29 4 31 11 1 25 -8 31 -20z m-276 3 c3 -6 -1 -7 -9 -4 -18 7 -21
14 -7 14 6 0 13 -4 16 -10z m235 -41 c0 -4 -4 -10 -10 -14 -5 -3 -7 -12 -3
-20 3 -9 -1 -15 -11 -15 -18 0 -22 -35 -6 -45 6 -3 10 -15 10 -25 0 -13 5 -17
15 -14 10 4 15 0 15 -15 0 -21 -1 -21 -25 -5 -27 18 -29 22 -29 110 -1 57 0
60 22 56 12 -2 22 -8 22 -13z m-86 -5 c9 -3 16 -10 16 -16 0 -5 -5 -6 -10 -3
-6 4 -17 1 -25 -5 -12 -10 -15 -9 -15 9 0 22 7 25 34 15z m-144 -13 c0 -5 3
-17 7 -27 4 -11 3 -15 -4 -11 -14 9 -24 47 -12 47 5 0 9 -4 9 -9z m60 -46 c5
3 10 3 11 -2 0 -4 2 -18 3 -31 2 -13 -1 -25 -5 -28 -11 -6 -25 23 -33 66 -5
29 -4 31 4 12 5 -13 14 -20 20 -17z m200 28 c0 -5 -5 -15 -10 -23 -7 -12 -9
-10 -7 8 1 19 17 33 17 15z m-2944 -41 c-4 -3 -11 0 -16 8 -15 24 -11 33 6 15
9 -9 13 -19 10 -23z m2676 -3 c5 -3 3 -9 -4 -12 -8 -3 -20 4 -27 15 -7 11 -8
17 -2 13 6 -3 11 0 12 7 0 9 2 8 6 -2 3 -8 10 -18 15 -21z m268 -29 c14 -11
20 -20 14 -20 -7 0 -22 9 -35 20 -31 25 -12 26 21 0z m-157 -50 c-3 -11 -10
-23 -16 -27 -5 -3 -8 -2 -5 3 3 5 8 17 11 27 9 24 16 22 10 -3z m-53 -15 c0
-8 -4 -15 -10 -15 -5 0 -7 7 -4 15 4 8 8 15 10 15 2 0 4 -7 4 -15z m170 5 c0
-5 -2 -10 -4 -10 -3 0 -8 5 -11 10 -3 6 -1 10 4 10 6 0 11 -4 11 -10z m175
-69 c3 -5 1 -12 -5 -16 -5 -3 -10 1 -10 9 0 18 6 21 15 7z m-3132 -15 c4 -10
0 -12 -14 -9 -10 3 -16 9 -13 14 8 13 21 11 27 -5z m1 -39 c4 4 4 0 0 -10 -8
-23 -20 -21 -27 4 -4 15 -2 18 7 10 7 -6 16 -8 20 -4z m16 -52 c11 -13 11 -18
0 -28 -10 -9 -11 -9 -5 1 4 8 0 19 -11 27 -11 8 -14 15 -8 15 6 0 17 -7 24
-15z m-582 -69 c-2 -3 5 -11 15 -18 18 -13 17 -14 -2 -14 -15 0 -19 7 -19 31
1 16 3 24 5 18 3 -7 3 -15 1 -17z m145 8 c-7 -3 -9 -13 -6 -22 5 -13 3 -14 -7
-5 -14 13 -5 33 13 32 9 0 9 -2 0 -5z m42 -4 c3 -5 1 -10 -4 -10 -6 0 -11 5
-11 10 0 6 2 10 4 10 3 0 8 -4 11 -10z m-127 -45 c-6 -13 -15 -22 -21 -18 -5
3 -3 9 4 14 8 5 10 9 4 9 -5 0 -3 5 5 10 21 13 21 13 8 -15z m417 -15 c7 0 15
-6 18 -14 4 -11 0 -11 -26 2 -37 18 -50 28 -24 19 10 -4 25 -7 32 -7z m-455
-60 c0 -5 -2 -10 -4 -10 -3 0 -8 5 -11 10 -3 6 -1 10 4 10 6 0 11 -4 11 -10z
m531 -7 c13 -16 12 -17 -3 -4 -17 13 -22 21 -14 21 2 0 10 -8 17 -17z m44 7
c3 -5 1 -10 -4 -10 -6 0 -11 5 -11 10 0 6 2 10 4 10 3 0 8 -4 11 -10z m60 -8
c-3 -3 -11 0 -18 7 -9 10 -8 11 6 5 10 -3 15 -9 12 -12z m-485 -6 c0 -2 -7 -7
-16 -10 -8 -3 -12 -2 -9 4 6 10 25 14 25 6z m2748 -352 c-9 -10 -21 -13 -29
-8 -9 5 -8 9 7 15 31 12 39 10 22 -7z m-48 -5 c0 -6 -9 -9 -20 -6 -11 3 -23 1
-26 -4 -3 -5 -13 -9 -22 -9 -12 0 -10 4 8 14 31 17 60 20 60 5z m-525 -220
c11 -17 -1 -21 -15 -4 -8 9 -8 15 -2 15 6 0 14 -5 17 -11z m10 -38 c3 -5 2
-12 -3 -15 -5 -3 -9 1 -9 9 0 17 3 19 12 6z m-65 -81 c0 -5 -2 -10 -4 -10 -3
0 -8 5 -11 10 -3 6 -1 10 4 10 6 0 11 -4 11 -10z m32 -22 c-6 -6 -15 -8 -19
-4 -4 4 -1 11 7 16 8 5 17 7 19 4 3 -2 -1 -10 -7 -16z m-45 -12 c0 -8 -6 -12
-14 -9 -7 3 -13 9 -13 14 0 5 6 9 13 9 8 0 14 -6 14 -14z m21 -26 c-12 -19
-28 -27 -28 -14 0 6 30 33 38 34 1 0 -3 -9 -10 -20z m-268 -70 c0 -5 -4 -10
-10 -10 -5 0 -10 5 -10 10 0 6 5 10 10 10 6 0 10 -4 10 -10z m310 -279 c0 -6
-4 -12 -8 -15 -5 -3 -9 1 -9 9 0 8 4 15 9 15 4 0 8 -4 8 -9z m60 -821 c0 -5
-2 -10 -4 -10 -3 0 -8 5 -11 10 -3 6 -1 10 4 10 6 0 11 -4 11 -10z m75 -20
c10 -11 14 -20 8 -20 -5 0 -18 9 -28 20 -10 11 -14 20 -8 20 5 0 18 -9 28 -20z
m-56 -64 c-3 -3 -11 5 -18 17 -13 21 -12 21 5 5 10 -10 16 -20 13 -22z m-35
-42 c3 -8 2 -12 -4 -9 -6 3 -10 10 -10 16 0 14 7 11 14 -7z"/>
<path d="M8140 7259 c0 -5 5 -7 10 -4 6 3 10 8 10 11 0 2 -4 4 -10 4 -5 0 -10
-5 -10 -11z"/>
<path d="M7830 7272 c0 -4 9 -8 20 -9 11 -1 18 2 15 8 -7 11 -35 12 -35 1z"/>
<path d="M8576 6975 c-9 -26 -7 -32 5 -12 6 10 9 21 6 23 -2 3 -7 -2 -11 -11z"/>
<path d="M5170 6730 c0 -5 5 -10 11 -10 5 0 7 5 4 10 -3 6 -8 10 -11 10 -2 0
-4 -4 -4 -10z"/>
<path d="M5211 6717 c-8 -10 -7 -14 2 -14 8 0 14 6 14 14 0 7 -1 13 -2 13 -2
0 -8 -6 -14 -13z"/>
<path d="M5275 6610 c-3 -5 -1 -10 4 -10 6 0 11 5 11 10 0 6 -2 10 -4 10 -3 0
-8 -4 -11 -10z"/>
<path d="M5295 6501 c-6 -11 9 -23 19 -14 9 9 7 23 -3 23 -6 0 -12 -4 -16 -9z"/>
<path d="M5327 6453 c-12 -11 -8 -21 13 -26 22 -6 23 -5 14 17 -7 17 -16 20
-27 9z"/>
<path d="M4550 6430 c0 -5 5 -10 11 -10 5 0 7 5 4 10 -3 6 -8 10 -11 10 -2 0
-4 -4 -4 -10z"/>
<path d="M5365 6410 c-3 -5 3 -19 14 -31 l20 -21 -1 31 c-1 30 -20 42 -33 21z"/>
<path d="M5423 6378 c-8 -18 -9 -29 -2 -34 15 -9 21 1 17 32 l-3 29 -12 -27z"/>
<path d="M5210 6370 c0 -5 5 -10 10 -10 6 0 10 5 10 10 0 6 -4 10 -10 10 -5 0
-10 -4 -10 -10z"/>
<path d="M5539 6305 c-1 -11 0 -24 1 -30 1 -5 2 -18 3 -28 1 -16 5 -14 24 9
19 24 20 30 8 37 -8 4 -15 13 -15 18 0 6 5 7 10 4 6 -3 10 -2 10 4 0 20 -40 7
-41 -14z"/>
<path d="M4567 6226 c-4 -10 -1 -13 9 -9 15 6 19 23 5 23 -5 0 -11 -7 -14 -14z"/>
<path d="M4530 6191 c0 -5 5 -13 10 -16 6 -3 10 -2 10 4 0 5 -4 13 -10 16 -5
3 -10 2 -10 -4z"/>
<path d="M5460 6171 c0 -6 4 -13 10 -16 6 -3 7 1 4 9 -7 18 -14 21 -14 7z"/>
<path d="M5490 6116 c0 -2 8 -10 18 -17 15 -13 16 -12 3 4 -13 16 -21 21 -21
13z"/>
<path d="M5730 6105 c0 -10 29 -24 34 -17 3 6 -3 12 -14 15 -11 3 -20 4 -20 2z"/>
<path d="M5795 6090 c-19 -8 -19 -9 3 -9 12 -1 22 4 22 9 0 6 -1 10 -2 9 -2 0
-12 -4 -23 -9z"/>
<path d="M5725 6061 c-3 -5 -2 -12 3 -15 5 -3 9 1 9 9 0 17 -3 19 -12 6z"/>
<path d="M5794 6048 c10 -6 22 -6 26 -2 5 5 -3 10 -18 11 -22 1 -24 0 -8 -9z"/>
<path d="M5990 6038 l-25 -21 25 8 c31 9 33 11 29 24 -2 5 -15 0 -29 -11z"/>
<path d="M4697 6031 c-4 -17 -3 -21 5 -13 5 5 8 16 6 23 -3 8 -7 3 -11 -10z"/>
<path d="M5577 6024 c-13 -18 -14 -22 -3 -18 8 3 17 13 20 21 10 25 3 23 -17
-3z"/>
<path d="M6068 6013 c14 -26 42 -49 42 -35 0 6 -6 15 -14 19 -8 4 -15 12 -15
18 0 5 -5 11 -11 13 -9 3 -9 -1 -2 -15z"/>
<path d="M5465 6010 c-3 -5 -1 -10 4 -10 6 0 11 5 11 10 0 6 -2 10 -4 10 -3 0
-8 -4 -11 -10z"/>
<path d="M5805 5990 c3 -5 8 -10 11 -10 2 0 4 5 4 10 0 6 -5 10 -11 10 -5 0
-7 -4 -4 -10z"/>
<path d="M5916 5987 c3 -10 9 -15 12 -12 3 3 0 11 -7 18 -10 9 -11 8 -5 -6z"/>
<path d="M6021 5964 c13 -16 29 -19 29 -5 0 5 -9 11 -21 14 -16 4 -18 3 -8 -9z"/>
<path d="M6067 5973 c-4 -3 -7 -18 -7 -32 l1 -26 14 25 c8 14 14 28 15 33 0 9
-14 9 -23 0z"/>
<path d="M5838 5943 c7 -3 16 -2 19 1 4 3 -2 6 -13 5 -11 0 -14 -3 -6 -6z"/>
<path d="M5990 5942 c0 -11 51 -35 58 -27 3 3 0 5 -7 5 -7 0 -9 4 -6 10 3 6
-1 7 -9 4 -9 -3 -16 -1 -16 5 0 6 -4 11 -10 11 -5 0 -10 -4 -10 -8z"/>
<path d="M5994 5891 c11 -11 15 -21 10 -21 -5 0 -14 -8 -21 -19 -11 -17 -10
-18 13 -7 29 14 28 59 -2 65 -19 3 -19 3 0 -18z"/>
<path d="M5774 5862 c3 -6 -1 -18 -10 -26 -8 -9 -11 -16 -5 -16 17 0 33 38 19
46 -6 4 -8 3 -4 -4z"/>
<path d="M5862 5830 c7 -10 14 -18 15 -16 6 6 -9 36 -18 36 -5 0 -4 -9 3 -20z"/>
<path d="M4836 5821 c-4 -5 3 -7 14 -4 23 6 26 13 6 13 -8 0 -17 -4 -20 -9z"/>
<path d="M4910 5819 c0 -5 5 -7 10 -4 6 3 10 8 10 11 0 2 -4 4 -10 4 -5 0 -10
-5 -10 -11z"/>
<path d="M5820 5816 c0 -2 7 -6 15 -10 8 -3 15 -1 15 4 0 6 -7 10 -15 10 -8 0
-15 -2 -15 -4z"/>
<path d="M5972 5804 c-7 -8 -8 -14 -3 -14 10 0 25 19 20 25 -2 1 -10 -3 -17
-11z"/>
<path d="M5781 5802 c-1 -8 -6 -10 -13 -6 -9 5 -9 2 1 -9 15 -19 37 -22 46 -7
3 5 0 7 -9 4 -8 -3 -16 2 -19 13 -3 10 -5 12 -6 5z"/>
<path d="M4900 5790 c-9 -6 -10 -10 -3 -10 6 0 15 5 18 10 8 12 4 12 -15 0z"/>
<path d="M4880 5767 c0 -1 -4 -18 -10 -36 -11 -38 0 -31 18 12 7 16 8 27 2 27
-6 0 -10 -1 -10 -3z"/>
<path d="M5815 5749 c-4 -6 -5 -12 -2 -15 2 -3 7 2 10 11 7 17 1 20 -8 4z"/>
<path d="M5660 5735 c-11 -13 -10 -14 4 -9 9 3 16 10 16 15 0 13 -6 11 -20 -6z"/>
<path d="M4820 5725 c-10 -12 -10 -15 4 -15 9 0 16 7 16 15 0 8 -2 15 -4 15
-2 0 -9 -7 -16 -15z"/>
<path d="M4745 5690 c-3 -5 -1 -10 4 -10 6 0 11 5 11 10 0 6 -2 10 -4 10 -3 0
-8 -4 -11 -10z"/>
<path d="M5146 5691 c-4 -7 -5 -15 -2 -18 9 -9 19 4 14 18 -4 11 -6 11 -12 0z"/>
<path d="M5645 5688 c11 -6 24 -16 28 -22 5 -7 6 -4 3 7 -3 10 -6 21 -6 23 0
2 -10 4 -22 4 -22 -1 -22 -1 -3 -12z"/>
<path d="M4817 5683 c-4 -3 -7 -11 -7 -17 0 -6 5 -5 12 2 6 6 9 14 7 17 -3 3
-9 2 -12 -2z"/>
<path d="M4855 5680 c-3 -5 -1 -10 4 -10 6 0 11 5 11 10 0 6 -2 10 -4 10 -3 0
-8 -4 -11 -10z"/>
<path d="M5026 5673 c-6 -14 -5 -15 5 -6 7 7 10 15 7 18 -3 3 -9 -2 -12 -12z"/>
<path d="M4903 5665 c-3 -9 -3 -18 -1 -21 3 -3 8 4 11 16 6 23 -1 27 -10 5z"/>
<path d="M5615 5670 c3 -5 8 -10 11 -10 2 0 4 5 4 10 0 6 -5 10 -11 10 -5 0
-7 -4 -4 -10z"/>
<path d="M4830 5640 c0 -19 3 -21 12 -12 9 9 9 15 0 24 -9 9 -12 7 -12 -12z"/>
<path d="M5355 5640 c-3 -5 -1 -10 4 -10 6 0 11 5 11 10 0 6 -2 10 -4 10 -3 0
-8 -4 -11 -10z"/>
<path d="M5523 5629 c-2 -23 3 -25 10 -4 4 8 3 16 -1 19 -4 3 -9 -4 -9 -15z"/>
<path d="M5586 5615 c-8 -8 -23 -12 -33 -9 -17 5 -17 5 -1 -6 13 -8 23 -7 38
2 11 7 20 16 20 20 0 12 -7 10 -24 -7z"/>
<path d="M5430 5560 c0 -5 5 -10 11 -10 5 0 7 5 4 10 -3 6 -8 10 -11 10 -2 0
-4 -4 -4 -10z"/>
<path d="M5500 5566 c0 -2 7 -9 15 -16 9 -7 15 -8 15 -2 0 5 -7 12 -15 16 -8
3 -15 4 -15 2z"/>
<path d="M4663 5522 c-10 -6 -10 -12 2 -28 14 -18 14 -18 15 9 0 30 0 30 -17
19z"/>
<path d="M5090 5470 c0 -5 5 -10 10 -10 6 0 10 5 10 10 0 6 -4 10 -10 10 -5 0
-10 -4 -10 -10z"/>
<path d="M4627 5443 c-4 -3 -7 -11 -7 -17 0 -6 5 -5 12 2 6 6 9 14 7 17 -3 3
-9 2 -12 -2z"/>
<path d="M5082 5429 c-7 -11 -11 -23 -9 -25 7 -7 29 24 25 36 -2 6 -9 1 -16
-11z"/>
<path d="M8157 6664 c-2 -14 0 -23 6 -21 13 4 18 35 7 42 -4 3 -10 -7 -13 -21z"/>
<path d="M8163 6590 c0 -25 2 -35 4 -22 2 12 2 32 0 45 -2 12 -4 2 -4 -23z"/>
<path d="M8450 6530 c0 -13 5 -20 13 -17 6 2 12 10 12 17 0 7 -6 15 -12 18 -8
2 -13 -5 -13 -18z"/>
<path d="M8155 6529 c-4 -6 -5 -12 -2 -15 2 -3 7 2 10 11 7 17 1 20 -8 4z"/>
<path d="M8479 6504 c-13 -14 -31 -29 -40 -33 -20 -8 -8 -51 15 -51 19 0 46
27 47 48 0 9 2 27 3 40 2 12 2 22 1 22 -1 0 -12 -12 -26 -26z"/>
<path d="M8261 6445 c-102 -76 -141 -112 -141 -129 0 -32 23 -118 29 -110 12
17 54 49 47 36 -7 -11 -4 -12 13 -3 11 7 21 15 21 20 0 4 20 21 45 37 27 17
45 35 45 47 0 10 4 16 9 13 5 -3 14 1 21 10 10 11 10 18 2 26 -15 15 -15 28
-2 28 6 0 9 -3 8 -7 -1 -9 20 -61 22 -53 8 32 5 73 -6 85 -8 8 -15 17 -14 20
1 20 -2 24 -17 18 -11 -4 -14 -3 -9 5 11 18 7 16 -73 -43z m52 0 c-3 -9 -8
-14 -10 -11 -3 3 -2 9 2 15 9 16 15 13 8 -4z m-39 -24 c-10 -10 -21 -17 -23
-15 -2 2 -11 -1 -20 -7 -9 -6 -3 0 12 15 32 29 61 36 31 7z"/>
<path d="M8030 6467 c0 -39 0 -40 -13 -56 -10 -12 -9 -14 4 -9 9 3 22 2 30 -4
11 -8 10 -9 -3 -4 -24 7 -23 -6 2 -22 16 -10 25 -10 43 -1 20 11 21 11 8 -4
-12 -15 -11 -17 3 -17 14 0 17 8 13 48 -3 37 -8 46 -21 44 -9 -2 -16 4 -16 11
0 8 -7 18 -16 21 -10 4 -13 2 -9 -7 4 -6 -1 -3 -9 7 -15 19 -16 19 -16 -7z"/>
<path d="M4522 5955 c-9 -19 -8 -23 3 -19 17 7 27 31 16 38 -4 3 -13 -6 -19
-19z"/>
<path d="M4520 5869 c0 -5 5 -7 10 -4 6 3 10 8 10 11 0 2 -4 4 -10 4 -5 0 -10
-5 -10 -11z"/>
<path d="M4965 5549 c-11 -17 1 -21 15 -4 8 9 8 15 2 15 -6 0 -14 -5 -17 -11z"/>
<path d="M5560 5430 c0 -5 5 -10 11 -10 5 0 7 5 4 10 -3 6 -8 10 -11 10 -2 0
-4 -4 -4 -10z"/>
<path d="M4480 5173 c0 -17 20 -27 32 -15 6 6 6 12 -1 16 -6 4 -11 1 -11 -6 0
-9 -3 -9 -10 2 -6 9 -10 10 -10 3z"/>
<path d="M8281 8827 c2 -1 15 -11 29 -22 l25 -20 -19 23 c-11 12 -24 22 -29
22 -6 0 -8 -1 -6 -3z"/>
<path d="M4443 8293 c9 -2 25 -2 35 0 9 3 1 5 -18 5 -19 0 -27 -2 -17 -5z"/>
<path d="M4347 8255 c-51 -35 -47 -41 6 -9 50 32 53 34 41 34 -5 0 -26 -11
-47 -25z"/>
<path d="M8670 8211 c0 -6 4 -13 10 -16 6 -3 7 1 4 9 -7 18 -14 21 -14 7z"/>
<path d="M8690 8010 c0 -5 5 -10 11 -10 5 0 7 5 4 10 -3 6 -8 10 -11 10 -2 0
-4 -4 -4 -10z"/>
<path d="M8761 7976 c2 -2 15 -9 29 -15 24 -11 24 -11 6 3 -16 13 -49 24 -35
12z"/>
<path d="M8872 7800 c7 -11 16 -20 20 -20 5 0 3 9 -4 20 -7 11 -16 20 -20 20
-5 0 -3 -9 4 -20z"/>
<path d="M8910 7747 c0 -8 7 -17 15 -21 8 -3 15 -2 15 3 0 5 -7 14 -15 21 -12
10 -15 10 -15 -3z"/>
<path d="M8950 7690 c6 -11 13 -20 16 -20 2 0 0 9 -6 20 -6 11 -13 20 -16 20
-2 0 0 -9 6 -20z"/>
<path d="M8906 7657 c3 -10 9 -15 12 -12 3 3 0 11 -7 18 -10 9 -11 8 -5 -6z"/>
<path d="M8880 7622 c0 -13 4 -20 10 -17 6 3 13 0 16 -9 5 -12 34 -32 34 -22
0 2 -13 19 -30 37 -28 32 -30 33 -30 11z"/>
<path d="M7145 6440 c-3 -5 -1 -10 4 -10 6 0 11 5 11 10 0 6 -2 10 -4 10 -3 0
-8 -4 -11 -10z"/>
<path d="M4040 6350 c0 -5 5 -10 11 -10 5 0 7 5 4 10 -3 6 -8 10 -11 10 -2 0
-4 -4 -4 -10z"/>
<path d="M7000 6335 c0 -2 6 -8 13 -14 10 -8 14 -7 14 2 0 8 -6 14 -14 14 -7
0 -13 -1 -13 -2z"/>
<path d="M6960 6308 c0 -4 7 -8 15 -8 8 0 15 4 15 8 0 5 -7 9 -15 9 -8 0 -15
-4 -15 -9z"/>
<path d="M7090 6281 c0 -6 4 -13 10 -16 6 -3 7 1 4 9 -7 18 -14 21 -14 7z"/>
<path d="M6759 6218 c0 -2 -2 -11 -4 -20 -5 -25 11 -23 18 2 3 11 1 20 -4 20
-5 0 -9 -1 -10 -2z"/>
<path d="M6855 6190 c3 -5 8 -10 11 -10 2 0 4 5 4 10 0 6 -5 10 -11 10 -5 0
-7 -4 -4 -10z"/>
<path d="M7526 5997 c3 -10 9 -15 12 -12 3 3 0 11 -7 18 -10 9 -11 8 -5 -6z"/>
<path d="M7555 5966 c-5 -6 -10 -40 -11 -76 -1 -74 -8 -138 -18 -147 -3 -3 -6
-11 -6 -17 0 -21 23 13 25 38 2 14 7 45 11 68 4 24 7 46 6 50 -1 4 5 5 13 2 9
-4 15 0 16 7 0 8 4 5 9 -6 8 -18 9 -18 9 -2 1 10 -6 20 -14 23 -8 4 -13 10
-10 14 3 4 -2 13 -11 20 -11 10 -12 15 -3 20 6 4 7 10 3 13 -5 3 -13 0 -19 -7z"/>
<path d="M7338 5932 c-9 -10 -9 -13 -1 -9 6 4 14 3 18 -3 4 -6 -5 -10 -22 -10
-29 0 -120 -47 -141 -72 -17 -21 7 -79 51 -125 20 -21 43 -47 50 -57 10 -14
21 -17 40 -12 36 9 99 66 93 83 -3 8 -2 12 3 8 10 -5 21 53 18 97 -1 14 -16
42 -34 61 -17 19 -30 37 -27 40 3 2 -4 7 -15 10 -12 3 -26 -2 -33 -11z"/>
<path d="M7185 5930 c-3 -5 -1 -10 4 -10 6 0 11 5 11 10 0 6 -2 10 -4 10 -3 0
-8 -4 -11 -10z"/>
<path d="M7200 5716 c0 -2 7 -17 15 -32 16 -30 19 -25 9 14 -5 18 -24 33 -24
18z"/>
<path d="M4470 5673 c0 -16 -8 -25 -25 -29 -14 -3 -25 -13 -25 -21 0 -8 -4
-11 -10 -8 -5 3 -10 -3 -10 -14 0 -12 -7 -21 -16 -21 -8 0 -13 -4 -9 -9 3 -5
-5 -17 -17 -25 -12 -9 -19 -19 -15 -22 4 -4 15 0 25 9 10 10 27 17 37 17 14 0
15 3 6 14 -10 12 -7 18 16 33 15 9 31 21 34 26 4 5 17 14 30 21 28 14 38 46
15 46 -9 0 -16 -6 -16 -12 0 -9 -4 -8 -10 2 -8 12 -10 11 -10 -7z"/>
<path d="M4050 5589 c0 -5 5 -7 10 -4 6 3 10 8 10 11 0 2 -4 4 -10 4 -5 0 -10
-5 -10 -11z"/>
<path d="M4372 5505 c-11 -13 -9 -15 8 -15 11 0 20 7 20 15 0 19 -11 19 -28 0z"/>
<path d="M4311 5491 c-7 -5 -11 -19 -9 -32 4 -24 5 -24 16 5 14 32 12 39 -7
27z"/>
<path d="M7297 5489 c7 -7 15 -10 18 -7 3 3 -2 9 -12 12 -14 6 -15 5 -6 -5z"/>
<path d="M4357 5453 c-9 -9 -9 -33 1 -33 4 0 13 9 20 20 10 16 10 20 -1 20 -8
0 -17 -3 -20 -7z"/>
<path d="M7100 5429 c0 -5 5 -7 10 -4 6 3 10 8 10 11 0 2 -4 4 -10 4 -5 0 -10
-5 -10 -11z"/>
<path d="M7366 5391 c-3 -5 1 -14 8 -20 12 -10 13 -8 9 8 -6 23 -9 25 -17 12z"/>
<path d="M4371 5351 c-10 -6 -10 -10 -1 -16 13 -8 24 -1 19 14 -3 6 -10 7 -18
2z"/>
<path d="M4155 5340 c-3 -5 -1 -10 4 -10 6 0 11 5 11 10 0 6 -2 10 -4 10 -3 0
-8 -4 -11 -10z"/>
<path d="M7364 5329 c-3 -6 -2 -15 3 -20 5 -5 14 0 21 11 10 17 10 20 -2 20
-8 0 -18 -5 -22 -11z"/>
<path d="M7462 5271 c18 -22 34 -38 36 -36 6 6 -40 64 -55 69 -8 3 1 -12 19
-33z"/>
<path d="M4295 5179 c-4 -6 -5 -12 -2 -15 2 -3 7 2 10 11 7 17 1 20 -8 4z"/>
<path d="M4362 5120 c-31 -17 -31 -18 -9 -22 24 -5 72 24 60 36 -8 8 -12 7
-51 -14z"/>
<path d="M7610 5035 c7 -9 15 -13 17 -11 7 7 -7 26 -19 26 -6 0 -6 -6 2 -15z"/>
<path d="M4367 4873 c-13 -13 -7 -21 13 -16 11 3 20 9 20 14 0 10 -24 12 -33
2z"/>
<path d="M8046 4843 c-6 -14 -5 -15 5 -6 7 7 10 15 7 18 -3 3 -9 -2 -12 -12z"/>
<path d="M4341 4774 c0 -11 3 -14 6 -6 3 7 2 16 -1 19 -3 4 -6 -2 -5 -13z"/>
<path d="M8016 4765 c-3 -8 -1 -15 4 -15 6 0 10 7 10 15 0 8 -2 15 -4 15 -2 0
-6 -7 -10 -15z"/>
<path d="M7915 4599 c-9 -28 1 -36 14 -10 7 12 7 22 2 26 -5 3 -13 -4 -16 -16z"/>
<path d="M7480 4594 c0 -5 7 -18 15 -28 8 -11 15 -16 15 -10 0 5 -7 18 -15 28
-8 11 -15 16 -15 10z"/>
<path d="M7375 4561 c2 -14 4 -29 4 -33 1 -5 56 -28 69 -28 3 0 -3 6 -13 14
-11 8 -24 12 -29 9 -5 -4 -6 -1 -2 6 4 6 16 9 27 6 11 -4 19 -2 19 4 0 6 -3
10 -7 10 -20 -3 -31 3 -35 19 -8 30 -37 23 -33 -7z"/>
<path d="M7761 4578 c-1 -9 -8 -24 -17 -33 -9 -9 -14 -18 -11 -21 9 -9 39 44
34 58 -4 9 -6 7 -6 -4z"/>
<path d="M7938 4571 c-9 -13 -13 -32 -10 -49 5 -22 7 -23 10 -7 2 11 11 28 20
38 11 12 12 21 5 28 -8 8 -15 4 -25 -10z"/>
<path d="M7006 4565 c-3 -8 -1 -15 4 -15 6 0 10 7 10 15 0 8 -2 15 -4 15 -2 0
-6 -7 -10 -15z"/>
<path d="M6733 4526 c-17 -20 13 -62 33 -45 8 6 14 17 13 23 0 7 -2 6 -6 -1
-2 -7 -9 -13 -14 -13 -14 0 -11 38 4 43 8 4 7 6 -3 6 -8 0 -20 -6 -27 -13z"/>
<path d="M7374 4495 c10 -37 -8 -48 -34 -20 -26 28 -60 33 -60 9 0 -8 5 -12
11 -8 12 7 59 -15 59 -28 0 -4 -11 -8 -25 -8 -14 0 -25 5 -25 10 0 23 -29 8
-39 -20 -11 -33 -2 -70 23 -95 21 -21 28 -4 9 19 -17 20 -17 20 0 7 12 -9 21
-11 28 -4 13 13 1 41 -22 48 -19 6 -24 17 -13 28 6 6 74 -31 74 -41 0 -3 -7
-13 -15 -22 -13 -15 -12 -20 16 -48 32 -32 49 -40 49 -22 0 6 -4 10 -10 10 -5
0 -12 11 -16 25 -3 14 -9 23 -13 21 -3 -2 -7 16 -8 42 l-2 45 20 -29 c10 -16
19 -37 19 -46 0 -11 7 -18 18 -18 13 0 14 2 3 9 -7 5 -10 14 -7 20 4 6 2 11
-3 11 -6 0 -11 5 -11 11 0 5 5 7 10 4 17 -10 11 17 -7 38 -10 11 -12 17 -5 13
19 -11 14 9 -9 35 -18 21 -19 22 -15 4z m-94 -100 c7 -9 8 -15 2 -15 -5 0 -12
7 -16 15 -3 8 -4 15 -2 15 2 0 9 -7 16 -15z"/>
<path d="M7896 4463 c-9 -21 -25 -54 -35 -73 -11 -19 -15 -38 -10 -41 5 -3 -2
-15 -16 -27 -32 -28 -33 -49 -1 -25 14 10 32 38 42 63 9 25 20 50 25 55 16 21
27 62 20 74 -5 7 -14 -2 -25 -26z"/>
<path d="M7197 4479 c7 -7 15 -10 18 -7 3 3 -2 9 -12 12 -14 6 -15 5 -6 -5z"/>
<path d="M7230 4455 c0 -8 5 -15 10 -15 6 0 10 7 10 15 0 8 -4 15 -10 15 -5 0
-10 -7 -10 -15z"/>
<path d="M7430 4455 c0 -10 -5 -14 -12 -10 -7 4 -5 0 5 -8 9 -8 17 -21 17 -29
0 -9 9 -18 21 -21 19 -5 19 -4 6 17 -10 15 -12 28 -6 37 5 8 9 19 8 24 0 6 -7
-1 -15 -15 -8 -14 -13 -17 -10 -8 3 10 1 20 -4 23 -6 4 -10 -1 -10 -10z"/>
<path d="M7705 4450 c-3 -5 -1 -10 4 -10 6 0 11 5 11 10 0 6 -2 10 -4 10 -3 0
-8 -4 -11 -10z"/>
<path d="M7150 4420 c8 -5 20 -10 25 -10 6 0 3 5 -5 10 -8 5 -19 10 -25 10 -5
0 -3 -5 5 -10z"/>
<path d="M7685 4420 c-3 -5 -1 -10 4 -10 6 0 11 5 11 10 0 6 -2 10 -4 10 -3 0
-8 -4 -11 -10z"/>
<path d="M6916 4407 c3 -10 9 -15 12 -12 3 3 0 11 -7 18 -10 9 -11 8 -5 -6z"/>
<path d="M6984 4394 c-11 -16 -23 -23 -33 -19 -11 4 -13 3 -6 -4 17 -17 53 -1
58 25 5 31 2 30 -19 -2z"/>
<path d="M7051 4387 c19 -17 42 -44 49 -59 7 -16 19 -28 27 -28 7 0 13 -10 13
-23 0 -16 6 -23 21 -24 20 -2 20 -1 5 16 -9 10 -16 28 -16 40 0 18 -4 21 -20
16 -13 -4 -20 -2 -20 7 0 16 -71 88 -85 88 -6 0 6 -15 26 -33z"/>
<path d="M6881 4387 c2 -1 13 -9 24 -17 19 -14 19 -14 6 3 -7 9 -18 17 -24 17
-6 0 -8 -1 -6 -3z"/>
<path d="M7010 4361 c0 -9 30 -24 36 -18 2 1 -6 8 -16 15 -11 7 -20 8 -20 3z"/>
<path d="M7701 4324 c0 -11 3 -14 6 -6 3 7 2 16 -1 19 -3 4 -6 -2 -5 -13z"/>
<path d="M7723 4285 c-3 -9 -3 -18 -1 -21 3 -3 8 4 11 16 6 23 -1 27 -10 5z"/>
<path d="M6970 4279 c0 -5 5 -7 10 -4 6 3 10 8 10 11 0 2 -4 4 -10 4 -5 0 -10
-5 -10 -11z"/>
<path d="M7815 4260 c-4 -6 -11 -7 -17 -4 -6 4 -8 2 -5 -4 10 -15 -3 -43 -16
-35 -6 4 -7 1 -2 -7 8 -13 23 0 46 43 10 18 5 24 -6 7z"/>
<path d="M7117 4210 c-3 -11 -1 -20 4 -20 5 0 9 9 9 20 0 11 -2 20 -4 20 -2 0
-6 -9 -9 -20z"/>
<path d="M7591 4204 c0 -11 3 -14 6 -6 3 7 2 16 -1 19 -3 4 -6 -2 -5 -13z"/>
<path d="M7739 4187 c-9 -7 -14 -17 -12 -24 8 -22 -17 -24 -27 -1 -10 22 -10
22 -5 -3 3 -17 -1 -32 -13 -42 -17 -15 -21 -17 -42 -17 -5 0 -10 -4 -10 -9 0
-6 13 -6 33 -1 28 8 30 8 15 -4 -21 -16 -24 -28 -4 -20 7 3 19 17 25 31 9 20
15 23 23 15 17 -17 30 -15 27 6 -2 9 2 26 8 38 15 27 4 47 -18 31z"/>
<path d="M7430 4161 c0 -25 6 -27 13 -6 4 8 2 17 -3 20 -6 4 -10 -3 -10 -14z"/>
<path d="M7505 4163 c4 -14 2 -23 -4 -23 -6 0 -11 -13 -11 -30 0 -16 5 -30 11
-30 7 0 9 9 5 24 -7 28 2 40 21 25 21 -18 16 6 -8 32 l-20 24 6 -22z"/>
<path d="M4323 4075 c0 -8 4 -12 9 -9 4 3 8 9 8 15 0 5 -4 9 -8 9 -5 0 -9 -7
-9 -15z"/>
<path d="M7476 4061 c-4 -5 -2 -12 3 -15 5 -4 12 -2 15 3 4 5 2 12 -3 15 -5 4
-12 2 -15 -3z"/>
<path d="M7634 4059 c-9 -15 13 -36 25 -23 6 5 4 14 -4 21 -10 9 -16 10 -21 2z"/>
<path d="M4335 4050 c-3 -6 1 -7 9 -4 18 7 21 14 7 14 -6 0 -13 -4 -16 -10z"/>
<path d="M7690 4045 c-19 -22 -8 -25 13 -3 9 10 13 18 8 18 -5 0 -14 -7 -21
-15z"/>
<path d="M4220 3910 c8 -5 20 -10 25 -10 6 0 3 5 -5 10 -8 5 -19 10 -25 10 -5
0 -3 -5 5 -10z"/>
<path d="M4195 3870 c-16 -7 -17 -9 -3 -9 9 -1 20 4 23 9 7 11 7 11 -20 0z"/>
<path d="M3851 3804 c0 -11 3 -14 6 -6 3 7 2 16 -1 19 -3 4 -6 -2 -5 -13z"/>
<path d="M4090 3790 c-9 -6 -10 -10 -3 -10 6 0 15 5 18 10 8 12 4 12 -15 0z"/>
<path d="M5900 2782 c0 -4 10 -9 22 -9 18 -2 20 0 8 7 -18 12 -30 13 -30 2z"/>
<path d="M6103 2738 c4 -12 2 -15 -7 -12 -8 3 -17 1 -21 -5 -4 -7 6 -11 26
-11 28 0 30 2 18 18 -21 27 -23 28 -16 10z"/>
<path d="M5950 2706 c0 -9 5 -16 10 -16 6 0 10 4 10 9 0 6 -4 13 -10 16 -5 3
-10 -1 -10 -9z"/>
<path d="M6160 2700 c0 -5 5 -10 11 -10 5 0 7 5 4 10 -3 6 -8 10 -11 10 -2 0
-4 -4 -4 -10z"/>
<path d="M6143 2563 c-17 -6 -16 -20 0 -26 8 -3 14 3 14 14 1 10 1 19 0 18 -1
0 -8 -3 -14 -6z"/>
<path d="M6187 2529 c7 -7 15 -10 18 -7 3 3 -2 9 -12 12 -14 6 -15 5 -6 -5z"/>
</g>
</svg>
